<svg width="680" height="160" viewBox="0 0 680 160" fill="none" xmlns="http://www.w3.org/2000/svg">
<path d="M5 2.5H2.5V5V69.2857V71.7857H5H18.5714H21.0714V69.2857V50.3571H83.9286V69.2857V71.7857H86.4286H100H102.5V69.2857V5V2.5H100H86.4286H83.9286V5V23.9286H21.0714V5V2.5H18.5714H5ZM5 109.643H2.5V112.143V133.571V136.071H5H83.9286V155V157.5H86.4286H100H102.5V155V90.7143V88.2143H100H86.4286H83.9286V90.7143V109.643H5Z" fill="white" stroke="#262626" stroke-width="5"/>
<path d="M130.756 155V157.5H133.256H204.538H207.038V155V136.071H218.795H221.295V133.571V90.7143V88.2143H218.795H207.038V69.2857V66.7857H204.538H150.013V28.9286H187.782V47.8571V50.3571H190.282H218.795H221.295V47.8571V26.4286V23.9286H218.795H207.038V5V2.5H204.538H133.256H130.756V5V23.9286H119H116.5V26.4286V69.2857V71.7857H119H130.756V90.7143V93.2143H133.256H187.782V131.071H150.013V112.143V109.643H147.513H119H116.5V112.143V133.571V136.071H119H130.756V155ZM273.321 155V157.5H275.821H304.333H306.833V155V71.7857H332.846H335.346V69.2857V47.8571V45.3571H332.846H306.833V5V2.5H304.333H275.821H273.321V5V45.3571H247.308H244.808V47.8571V69.2857V71.7857H247.308H273.321V155ZM358.859 155V157.5H361.359H446.897H449.397V155V69.2857V66.7857H446.897H435.141V47.8571V45.3571H432.641H361.359H358.859V47.8571V69.2857V71.7857H361.359H415.885V88.2143H361.359H358.859V90.7143V109.643H347.103H344.603V112.143V133.571V136.071H347.103H358.859V155ZM518.18 93.2143H520.68V90.7143V71.7857H560.949H563.449V69.2857V47.8571V45.3571H560.949H518.18H515.68V47.8571V66.7857H506.423V47.8571V45.3571H503.923H475.41H472.91V47.8571V155V157.5H475.41H503.923H506.423V155V93.2143H518.18ZM615.474 155V157.5H617.974H646.487H648.987V155V71.7857H675H677.5V69.2857V47.8571V45.3571H675H648.987V5V2.5H646.487H617.974H615.474V5V45.3571H589.462H586.962V47.8571V69.2857V71.7857H589.462H615.474V155ZM415.885 114.643V131.071H378.115V114.643H415.885Z" fill="white" stroke="#262626" stroke-width="5"/>
</svg>
