<svg width="544" height="389" viewBox="0 0 544 389" fill="none" xmlns="http://www.w3.org/2000/svg">
<path d="M475 328.704C475 328.704 393 306.5 387.5 264.5C382 222.5 513 153.5 424.5 111.5C336 69.5 311 131.5 221.5 176C174.876 199.182 57.0001 230.5 57.0001 230.5" stroke="#262626" stroke-width="50"/>
<path d="M439.095 317.324C439.095 317.324 405.133 301.5 389.5 266C373.867 230.5 461.15 189.5 456.5 143C454.009 118.091 398.168 92.4331 361.5 95.4999C313.924 99.4791 250.885 163.145 222 178C162.124 208.793 71.5001 229.5 71.5001 229.5" stroke="#B3FBD8" stroke-width="10" stroke-linecap="round" stroke-dasharray="0.1 34"/>
<circle cx="50" cy="229" r="47" fill="white" stroke="#262626" stroke-width="6"/>
<path d="M53 250V238H29V226H35V220H41V214H47V208H65V232H71V238H65V250H53ZM41 232H53V220H47V226H41V232Z" fill="#262626"/>
</svg>
