<svg width="610" height="503" viewBox="0 0 610 503" fill="none" xmlns="http://www.w3.org/2000/svg">
<path d="M43.9998 297C43.9998 297 158.5 297 279.5 274C407.6 249.651 466.425 130.811 381.5 88C274.5 34.0608 221.5 157.076 299 190.5C376.5 223.925 608 208 608 208" stroke="#262626" stroke-width="50"/>
<path d="M565.517 218.082C565.517 218.082 331.5 222 284.5 187.5C237.5 153 251.5 62.5 350 75C467.264 89.8812 416.706 193.222 354 243.5C286.638 297.511 44 297 44 297" stroke="#B3FBD8" stroke-width="10" stroke-linecap="round" stroke-dasharray="0.1 34"/>
<circle cx="50" cy="302" r="47" fill="white" stroke="#262626" stroke-width="6"/>
<path d="M35 323V317H29V305H35V299H29V287H35V281H59V287H65V299H59V305H71V317H65V323H35ZM47 299H59V287H41V293H47V299ZM35 317H59V311H47V305H35V317Z" fill="#262626"/>
</svg>
