<svg width="200" height="248" viewBox="0 0 200 248" fill="none" xmlns="http://www.w3.org/2000/svg">
<path d="M41.3911 24.4304C41.3911 24.4304 36.1958 96.7304 60.6111 141.361C85.0264 185.992 128.608 196.564 128.608 196.564" stroke="#262626" stroke-width="50"/>
<path d="M37.7595 15.6245C37.7595 15.6245 34.3402 89.8501 57.576 136.185C80.8118 182.519 121 194.199 121 194.199" stroke="#B3FBD8" stroke-width="10" stroke-linecap="round" stroke-dasharray="0.1 34"/>
<circle cx="150" cy="198" r="47" fill="white" stroke="#262626" stroke-width="6"/>
<path d="M132 219V213H144V189H138V183H144V177H156V213H168V219H132Z" fill="#262626"/>
<rect x="0.5" y="0.5" width="79" height="39" fill="white" stroke="#262626"/>
<rect width="10" height="10" fill="#262626"/>
<rect x="20" width="10" height="10" fill="#262626"/>
<rect x="40" width="10" height="10" fill="#262626"/>
<rect x="10" y="10" width="10" height="10" fill="#262626"/>
<rect x="20" y="20" width="10" height="10" fill="#262626"/>
<rect x="30" y="10" width="10" height="10" fill="#262626"/>
<rect x="40" y="20" width="10" height="10" fill="#262626"/>
<rect x="50" y="30" width="10" height="10" fill="#262626"/>
<rect x="60" y="20" width="10" height="10" fill="#262626"/>
<rect x="70" y="10" width="10" height="10" fill="#262626"/>
<rect x="70" y="30" width="10" height="10" fill="#262626"/>
<rect x="50" y="10" width="10" height="10" fill="#262626"/>
<rect x="30" y="30" width="10" height="10" fill="#262626"/>
<rect y="20" width="10" height="10" fill="#262626"/>
<rect x="10" y="30" width="10" height="10" fill="#262626"/>
<rect x="60" width="10" height="10" fill="#262626"/>
</svg>
