<svg width="577" height="584" viewBox="0 0 577 584" fill="none" xmlns="http://www.w3.org/2000/svg">
<path d="M369.243 426.114C364.557 428 359.467 428.661 354.455 428.036C349.442 427.411 344.671 425.521 340.59 422.543L289.297 385.03L240.923 349.665L221.549 335.507L256.678 287.465L272.225 298.832L320.452 334.084L337.137 346.284L346.932 290.778L354.81 246.11L411.939 261.418L411.981 261.261L387.446 403.674C386.566 408.652 384.434 413.324 381.249 417.25C378.064 421.176 373.933 424.227 369.243 426.114Z" fill="#262626"/>
<path d="M195.445 344.282C193.702 343.01 192.228 341.407 191.105 339.565C189.982 337.723 189.234 335.678 188.902 333.546C188.57 331.415 188.661 329.239 189.17 327.143C189.679 325.047 190.596 323.071 191.869 321.33L230.775 268.113L257.303 287.49L218.397 340.707C217.125 342.449 215.522 343.923 213.68 345.046C211.838 346.169 209.793 346.917 207.661 347.249C205.53 347.581 203.354 347.49 201.258 346.981C199.162 346.472 197.186 345.555 195.445 344.282Z" fill="#F47AFF"/>
<path d="M373.855 250.07L349.283 290.264L322.803 333.571L291.966 384.01C291.862 384.18 291.757 384.349 291.648 384.517C289.996 387.104 287.954 389.42 285.594 391.383L172.387 485.34L134.378 439.547L243.274 349.152L243.763 348.745L274.589 298.347L315.099 234.415L315.115 234.355L373.855 250.07Z" fill="#434445"/>
<path d="M162.602 502.834L119.203 450.376L144.529 429.44L187.919 481.896C189.294 483.558 190.328 485.474 190.962 487.536C191.597 489.597 191.818 491.764 191.615 493.911C191.412 496.058 190.788 498.144 189.778 500.05C188.768 501.956 187.393 503.645 185.731 505.019V505.019C184.069 506.395 182.153 507.43 180.091 508.065C178.029 508.7 175.862 508.922 173.714 508.719C171.566 508.516 169.479 507.892 167.572 506.882C165.666 505.873 163.977 504.497 162.602 502.834V502.834Z" fill="#F47AFF"/>
<path d="M465.758 331.905L429.672 338.949L416.962 273.654L415.127 264.259L310.097 236.117L312.175 228.361L311.914 228.594L294.354 244.353C292.553 245.969 290.451 247.213 288.169 248.014C285.886 248.815 283.468 249.159 281.053 249.024C278.637 248.889 276.272 248.279 274.093 247.229C271.914 246.178 269.964 244.708 268.354 242.903L201.206 167.914L228.642 143.438L283.523 204.693L335.827 157.712C339.541 153.071 343.991 149.072 349 145.874L349.72 145.245L349.83 145.368C356.103 141.502 363.099 138.96 370.39 137.898C377.681 136.836 385.112 137.277 392.226 139.193L398.49 140.871C409.939 143.943 420.066 150.682 427.323 160.056C434.579 169.429 438.566 180.922 438.672 192.776L465.758 331.905Z" fill="#F47AFF"/>
<path d="M208.03 150.823C204.631 152.977 200.618 153.955 196.609 153.608C192.6 153.261 188.815 151.608 185.836 148.903L171.685 136.043C168.076 132.766 165.916 128.189 165.681 123.319C165.446 118.45 167.155 113.686 170.432 110.077C173.709 106.467 178.286 104.308 183.156 104.073C188.025 103.838 192.789 105.547 196.398 108.824L210.569 121.689C212.663 123.593 214.29 125.954 215.322 128.589C216.355 131.225 216.765 134.062 216.521 136.882C216.278 139.702 215.386 142.427 213.917 144.846C212.448 147.265 210.441 149.312 208.051 150.829L208.03 150.823Z" fill="#EDBE9A"/>
<path d="M458.284 397.143C454.259 397.15 450.343 395.836 447.136 393.404C443.929 390.971 441.608 387.554 440.529 383.676L435.398 365.257C434.751 362.931 434.569 360.501 434.862 358.105C435.154 355.708 435.916 353.393 437.103 351.292C438.291 349.19 439.88 347.342 441.781 345.855C443.683 344.367 445.858 343.269 448.184 342.622C452.881 341.317 457.905 341.93 462.149 344.328C464.251 345.515 466.098 347.105 467.586 349.006C469.073 350.907 470.172 353.083 470.818 355.409L475.946 373.843C476.593 376.169 476.775 378.6 476.483 380.996C476.191 383.393 475.43 385.708 474.242 387.81C473.055 389.912 471.466 391.76 469.564 393.248C467.663 394.736 465.487 395.834 463.161 396.481C461.572 396.916 459.932 397.139 458.284 397.143V397.143Z" fill="#EDBE9A"/>
<g clip-path="url(#clip0_533_463)">
<rect x="163.249" y="114.419" width="12.3736" height="30.4839" transform="rotate(-5.87761 163.249 114.419)" fill="white"/>
<path d="M165.724 72.235L102.869 78.4995L112.38 173.932L188.203 166.375L179.986 83.9256L165.724 72.235ZM116.266 82.7295C117.75 82.5813 119.245 82.8772 120.561 83.5799C121.877 84.2826 122.956 85.3606 123.661 86.6774C124.366 87.9942 124.666 89.4908 124.522 90.9778C124.378 92.4649 123.797 93.8756 122.853 95.0316C121.908 96.1875 120.643 97.0368 119.216 97.4721C117.79 97.9073 116.266 97.9089 114.839 97.4767C113.411 97.0445 112.143 96.1979 111.195 95.0439C110.248 93.8899 109.663 92.4805 109.514 90.9937C109.416 90.0068 109.512 89.01 109.798 88.0605C110.084 87.111 110.554 86.2273 111.181 85.4599C111.808 84.6925 112.58 84.0564 113.452 83.5879C114.325 83.1194 115.281 82.8277 116.266 82.7295V82.7295ZM111.668 112.601L163.656 107.419L164.149 112.365L112.161 117.546L111.668 112.601ZM113.565 131.633L162.43 126.763L162.923 131.708L114.058 136.578L113.565 131.633ZM161.543 160.686L116.904 165.135L116.411 160.19L161.05 155.741L161.543 160.686ZM173.968 149.836L115.955 155.618L115.462 150.673L173.475 144.891L173.968 149.836ZM176.592 139.965L115.011 146.102L114.517 141.15L176.098 135.012L176.592 139.965ZM174.695 120.933L113.114 127.07L112.621 122.125L174.202 115.988L174.695 120.933ZM176.334 101.548L111.213 108.039L110.72 103.094L175.842 96.6032L176.334 101.548Z" fill="#434445"/>
<path d="M179.979 83.9281L167.018 85.2199L165.724 72.2349L179.979 83.9281Z" fill="#F47AFF"/>
<path d="M117.834 98.4619C122.368 98.01 125.677 93.961 125.224 89.4181C124.772 84.8753 120.729 81.5589 116.194 82.0108C111.66 82.4627 108.351 86.5118 108.804 91.0547C109.257 95.5975 113.3 98.9139 117.834 98.4619Z" fill="#F47AFF"/>
</g>
<g clip-path="url(#clip1_533_463)">
<path d="M506.673 363.551L499.26 350.713L426.357 392.804L433.769 405.643L506.673 363.551Z" fill="#434445"/>
<path d="M426.357 392.807L433.766 405.641L420.032 413.57C418.329 414.553 416.306 414.82 414.407 414.311C412.509 413.802 410.89 412.56 409.907 410.857V410.857C408.924 409.155 408.658 407.132 409.166 405.233C409.675 403.334 410.917 401.715 412.62 400.732L426.354 392.803L426.357 392.807Z" fill="#F47AFF"/>
<path d="M499.259 350.715L515.568 349.858L506.671 363.554L499.259 350.715Z" fill="#F47AFF"/>
</g>
<path d="M429.331 113.424C427.435 120.469 422.927 126.527 416.724 130.366C410.52 134.206 403.087 135.538 395.936 134.091C388.785 132.645 382.454 128.528 378.23 122.58C374.007 116.631 372.208 109.297 373.199 102.069C374.191 94.8413 377.899 88.2626 383.569 83.6714C389.238 79.0802 396.444 76.8213 403.72 77.3541C410.996 77.887 417.796 81.1716 422.737 86.5398C427.677 91.9081 430.387 98.9567 430.315 106.252C430.291 108.674 429.96 111.084 429.331 113.424V113.424Z" fill="#EDBE9A"/>
<path d="M409.02 78.2448C404.707 77.0893 400.184 76.9596 395.812 77.8662L397.635 73.3463C395.349 74.888 393.239 76.6754 391.342 78.6763C386.573 76.483 379.756 76.504 379.756 76.504L386.787 81.3888C382.146 84.1795 378.389 88.2249 375.948 93.0586C373.507 97.8923 372.482 103.318 372.991 108.709C379.747 105.952 385.53 94.8476 385.53 94.8476C385.53 94.8476 388.502 109.098 384.538 109.585C384.985 109.545 400.958 108.006 400.441 96.3883C400.441 96.3883 412.862 98.0616 409.836 108.2C409.836 108.2 423.365 106.21 421.67 96.8695C421.67 96.8695 429.254 100.926 426.656 107.186C427.951 107.305 429.248 106.977 430.33 106.256C430.385 99.8854 428.322 93.6771 424.465 88.6068C420.607 83.5364 415.175 79.8915 409.02 78.2448V78.2448Z" fill="#5AA9D4"/>
<defs>
<clipPath id="clip0_533_463">
<rect width="76.1912" height="95.905" fill="white" transform="translate(102.869 78.4995) rotate(-5.69164)"/>
</clipPath>
<clipPath id="clip1_533_463">
<rect width="88.4457" height="88.4457" fill="white" transform="translate(430.135 326.967) rotate(15)"/>
</clipPath>
</defs>
</svg>
