<svg width="461" height="311" viewBox="0 0 461 311" fill="none" xmlns="http://www.w3.org/2000/svg">
<path d="M116.39 44.4471C116.39 44.4471 -2.4721 73.6376 31.5 162.5C65.4721 251.362 134.79 157.632 223.5 162.499C319.71 167.778 419.5 250.999 419.5 250.999" stroke="#262626" stroke-width="50"/>
<path d="M112 43.4995C107.853 41.7302 24.6532 72.9235 26.5002 123.5C28.3473 174.076 38.6918 220.241 95 199C158.933 174.883 160.534 157.4 218.9 159.855C252.873 161.284 321.4 169.855 412.4 251.855" stroke="#B3FBD8" stroke-width="10" stroke-linecap="round" stroke-dasharray="0.1 34"/>
<rect x="379.232" y="268.51" width="79" height="39" transform="rotate(-50.6858 379.232 268.51)" fill="white" stroke="#262626"/>
<rect x="378.528" y="268.58" width="10" height="10" transform="rotate(-50.6858 378.528 268.58)" fill="#262626"/>
<rect x="391.2" y="253.106" width="10" height="10" transform="rotate(-50.6858 391.2 253.106)" fill="#262626"/>
<rect x="403.871" y="237.633" width="10" height="10" transform="rotate(-50.6858 403.871 237.633)" fill="#262626"/>
<rect x="392.601" y="267.179" width="10" height="10" transform="rotate(-50.6858 392.601 267.179)" fill="#262626"/>
<rect x="406.673" y="265.778" width="10" height="10" transform="rotate(-50.6858 406.673 265.778)" fill="#262626"/>
<rect x="405.272" y="251.705" width="10" height="10" transform="rotate(-50.6858 405.272 251.705)" fill="#262626"/>
<rect x="419.345" y="250.304" width="10" height="10" transform="rotate(-50.6858 419.345 250.304)" fill="#262626"/>
<rect x="433.417" y="248.903" width="10" height="10" transform="rotate(-50.6858 433.417 248.903)" fill="#262626"/>
<rect x="432.016" y="234.831" width="10" height="10" transform="rotate(-50.6858 432.016 234.831)" fill="#262626"/>
<rect x="430.615" y="220.758" width="10" height="10" transform="rotate(-50.6858 430.615 220.758)" fill="#262626"/>
<rect x="446.089" y="233.429" width="10" height="10" transform="rotate(-50.6858 446.089 233.429)" fill="#262626"/>
<rect x="417.944" y="236.232" width="10" height="10" transform="rotate(-50.6858 417.944 236.232)" fill="#262626"/>
<rect x="420.746" y="264.377" width="10" height="10" transform="rotate(-50.6858 420.746 264.377)" fill="#262626"/>
<rect x="394.002" y="281.251" width="10" height="10" transform="rotate(-50.6858 394.002 281.251)" fill="#262626"/>
<rect x="408.074" y="279.85" width="10" height="10" transform="rotate(-50.6858 408.074 279.85)" fill="#262626"/>
<rect x="416.543" y="222.159" width="10" height="10" transform="rotate(-50.6858 416.543 222.159)" fill="#262626"/>
</svg>
