<svg width="111" height="111" viewBox="0 0 111 111" fill="none" xmlns="http://www.w3.org/2000/svg">
<path d="M0.5 0.5H10.6V110.5H0.5V0.5Z" fill="#262626" stroke="#262626"/>
<path d="M44.4 43.4H23.2V1H76.7V11.1V12.1H77.7H110V54.5H45.4V44.4V43.4H44.4Z" stroke="#262626" stroke-width="2"/>
<path d="M43.9 0.5V10.6H33.8V0.5H43.9ZM43.9 32.8H33.8V22.7H43.9V32.8ZM99.4 33.8V43.9H89.3V33.8H99.4ZM100.4 32.8V22.7H110.5V32.8H100.4ZM78.2 22.7H88.3V32.8H78.2V22.7ZM77.2 11.6V21.7H67.1V11.6H77.2ZM66.1 0.5V10.6H56V0.5H66.1ZM55 11.6V21.7H44.9V11.6H55ZM44.9 43.9V33.8H55V43.9H44.9ZM56 55V44.9H66.1V55H56ZM67.1 43.9V33.8H77.2V43.9H67.1ZM78.2 44.9H88.3V55H78.2V44.9ZM66.1 22.7V32.8H56V22.7H66.1ZM99.4 21.7H89.3V11.6H99.4V21.7ZM100.4 44.9H110.5V55H100.4V44.9ZM32.8 33.8V43.9H22.7V33.8H32.8ZM32.8 11.6V21.7H22.7V11.6H32.8Z" fill="#262626" stroke="#262626"/>
<path d="M54.3361 10.6529L53.6125 10.2911V11.1001V44.4001V45.2091L54.3361 44.8473L87.6361 28.1973L88.5305 27.7501L87.6361 27.3029L54.3361 10.6529Z" fill="#B3FBD8" stroke="white"/>
<path d="M11.1 111H9.01875V107.531H2.08125V111H0V99.8999H2.08125V103.369H9.01875V99.8999H11.1V111Z" fill="white"/>
<path d="M11.1 93.6562H2.08125V97.1249H0V86.0249H2.08125V89.4937H11.1V91.5749V93.6562Z" fill="white"/>
<path d="M11.1 78.7315H9.51429V80.4748H7.92857V76.9883H9.51429V71.7585H6.34286V78.7315H4.75714V80.4748H1.58571V78.7315H0V70.0152H1.58571V68.2719H3.17143V71.7585H1.58571V76.9883H4.75714V70.0152H6.34286V68.2719H9.51429V70.0152H11.1V78.7315Z" fill="white"/>
<path d="M11.1 61.7791H4.75714V65.2657H3.17143V61.7791H0V58.2926H3.17143V54.8061H4.75714V58.2926H11.1V61.7791Z" fill="white"/>
<path d="M11.1 50.8392H9.51429V52.5825H7.92857V50.8392H6.34286V43.8661H4.75714V50.8392H3.17143V42.1229H4.75714V40.3796H11.1V50.8392ZM9.51429 49.096V43.8661H7.92857V49.096H9.51429Z" fill="white"/>
<path d="M4.75714 33.4065V31.6633H6.34286V33.4065H11.1V36.8931H3.17143V33.4065H4.75714ZM3.17143 26.4335H4.75714V31.6633H3.17143V26.4335Z" fill="white"/>
<path d="M11.1 19.4604H4.75714V22.9469H3.17143V19.4604H0V15.9738H3.17143V12.4873H4.75714V15.9738H11.1V19.4604Z" fill="white"/>
</svg>
