<svg width="492" height="666" viewBox="0 0 492 666" fill="none" xmlns="http://www.w3.org/2000/svg">
<path d="M235.429 536.806C239.258 539.798 243.756 541.726 248.5 542.411C253.244 543.095 258.077 542.512 262.544 540.717L318.72 518.077L371.695 496.737L392.911 488.197L372.53 433.47L355.504 440.33L302.691 461.599L284.419 468.961L289.068 413.591L292.815 369.034H236.743V368.874L224.266 510.785C223.85 515.751 224.657 520.746 226.61 525.298C228.563 529.851 231.598 533.811 235.429 536.806Z" fill="#262626"/>
<path d="M414.663 503.216C416.571 502.449 418.314 501.299 419.794 499.831C421.274 498.363 422.462 496.606 423.289 494.661C424.116 492.715 424.566 490.619 424.614 488.492C424.663 486.366 424.307 484.25 423.569 482.266L401 421.647L371.952 433.333L394.522 493.953C395.259 495.937 396.365 497.75 397.777 499.29C399.188 500.829 400.877 502.064 402.748 502.925C404.618 503.785 406.633 504.254 408.677 504.304C410.722 504.354 412.756 503.984 414.663 503.216Z" fill="#F47AFF"/>
<path d="M276.429 369.033L289.068 413.59L302.691 461.598L318.553 517.513C318.607 517.701 318.661 517.889 318.72 518.077C319.598 520.962 320.9 523.69 322.579 526.162L403.194 644.55L449.236 610.632L371.695 496.737L371.348 496.225L355.486 440.353L334.076 369.118V369.057L276.429 369.033Z" fill="#434445"/>
<path d="M405.834 662.622L458.448 623.732L440.393 597.326L387.787 636.216C386.121 637.448 384.704 639.01 383.617 640.812C382.53 642.614 381.796 644.62 381.455 646.717C381.114 648.815 381.174 650.961 381.631 653.034C382.088 655.107 382.933 657.067 384.118 658.8C385.302 660.535 386.803 662.01 388.535 663.141C390.268 664.272 392.198 665.037 394.215 665.392C396.231 665.747 398.295 665.685 400.289 665.209C402.283 664.734 404.167 663.855 405.834 662.622Z" fill="#F47AFF"/>
<g clip-path="url(#clip0_497_415)">
<path d="M336.571 317.912V371.39H235.334V317.912C235.332 314.116 235.783 310.333 236.677 306.644L136.595 266.444C134.159 265.466 131.998 263.91 130.296 261.911C128.595 259.912 127.405 257.53 126.829 254.969L115.762 205.75L147.37 198.641L156.568 239.555L255.167 279.159C263.289 273.285 273.061 270.132 283.084 270.149H288.798C300.911 270.142 312.573 274.741 321.421 283.014C330.268 291.287 335.639 302.615 336.444 314.701C336.529 315.762 336.571 316.833 336.571 317.912Z" fill="#F47AFF"/>
<path d="M127.256 195.801C126.231 195.801 125.207 195.703 124.2 195.51L101.161 191.115C96.9405 190.31 93.213 187.861 90.7982 184.308C88.3834 180.755 87.479 176.388 88.2841 172.168C89.0891 167.948 91.5376 164.22 95.0909 161.805C98.6442 159.39 103.011 158.486 107.231 159.291L130.275 163.691C134.235 164.445 137.771 166.649 140.193 169.872C142.614 173.095 143.747 177.105 143.37 181.119C142.993 185.132 141.132 188.861 138.152 191.576C135.173 194.291 131.288 195.797 127.256 195.801Z" fill="#EDBE9A"/>
<path d="M475.816 414.849C474.792 414.849 473.77 414.751 472.764 414.558L449.72 410.163C447.631 409.764 445.64 408.958 443.862 407.789C442.084 406.621 440.554 405.114 439.358 403.355C438.163 401.595 437.326 399.617 436.895 397.534C436.464 395.451 436.447 393.303 436.846 391.213C437.245 389.124 438.051 387.133 439.22 385.355C440.388 383.578 441.895 382.047 443.654 380.852C445.414 379.656 447.392 378.819 449.475 378.388C451.558 377.957 453.706 377.94 455.796 378.339L478.84 382.739C482.8 383.493 486.336 385.698 488.758 388.921C491.179 392.145 492.312 396.155 491.934 400.169C491.556 404.183 489.695 407.912 486.714 410.626C483.733 413.341 479.847 414.847 475.816 414.849Z" fill="#EDBE9A"/>
<path d="M455.303 369.334L423.7 376.438L414.751 336.651L336.459 314.701C335.877 306.029 332.94 297.68 327.965 290.554C322.989 283.428 316.163 277.795 308.222 274.261L304.973 272.952L432.803 308.067C435.618 308.856 438.167 310.392 440.18 312.512C442.193 314.632 443.594 317.258 444.236 320.11L455.303 369.334Z" fill="#F47AFF"/>
</g>
<g clip-path="url(#clip1_497_415)">
<path d="M286.624 270.745C272.621 270.745 261.27 259.394 261.27 245.391C261.27 231.388 272.621 220.037 286.624 220.037C300.626 220.037 311.978 231.388 311.978 245.391C311.978 259.394 300.626 270.745 286.624 270.745Z" fill="#EDBE9A"/>
<path d="M265.507 231.278L309.059 257.02C312.086 251.298 312.79 244.638 311.024 238.414C309.258 232.191 305.158 226.88 299.57 223.577C293.981 220.274 287.332 219.232 280.993 220.665C274.655 222.098 269.111 225.897 265.507 231.278Z" fill="#5AA9D4"/>
<path d="M313.29 257.142H330.74V274.501H313.29V257.142Z" fill="#5AA9D4"/>
</g>
<path d="M65.0422 118.057C66.0948 117.205 67.4047 116.734 68.7589 116.721L231.581 115.151C242.597 115.045 247.922 128.596 239.781 136.018L191.397 180.133C189.388 181.965 186.72 182.9 184.007 182.722L15.308 171.695C9.85844 171.339 7.67965 164.48 11.9248 161.044L65.0422 118.057Z" fill="#646464"/>
<path d="M59.5053 16.5038C59.3459 9.49725 65.2 3.86746 72.1972 4.29816L231.59 14.1094C237.833 14.4937 242.752 19.6054 242.894 25.8566L245.173 126.057C245.267 130.183 241.789 133.481 237.672 133.17L65.4864 120.161C63.4287 120.006 61.821 118.312 61.7741 116.25L59.5053 16.5038Z" fill="#434445"/>
<path d="M75.3931 27.559L80.054 32.6622L76.7104 32.4922L72.8693 28.2778L72.6656 32.2866L70.0589 32.1541L70.5295 22.8961L73.1362 23.0286L72.958 26.534L76.8574 23.2177L80.2729 23.3913L75.3931 27.559ZM85.033 33.1856C83.6308 33.1143 82.5271 32.6076 81.7219 31.6655C80.9166 30.7235 80.5515 29.5154 80.6264 28.0413C80.702 26.5552 81.1877 25.3903 82.0837 24.5467C82.9797 23.7031 84.1288 23.317 85.531 23.3882C86.9331 23.4595 88.0372 23.9602 88.843 24.8903C89.6488 25.8204 90.0139 27.0285 89.9384 28.5146C89.8629 30.0007 89.3708 31.1712 88.4622 32.0262C87.5663 32.8698 86.4232 33.2563 85.033 33.1856ZM83.7023 30.2883C84.0495 30.7866 84.5287 31.0512 85.1399 31.0823C85.7511 31.1134 86.2543 30.9047 86.6496 30.4561C87.0455 29.9956 87.2704 29.3522 87.3245 28.5259L87.3391 28.2383C87.3565 27.4221 87.1914 26.7709 86.8436 26.2846C86.5084 25.787 86.0353 25.5226 85.424 25.4915C84.8128 25.4605 84.3093 25.6752 83.9134 26.1357C83.5181 26.5842 83.2938 27.2156 83.2404 28.0299L83.2267 28.2996C83.1966 29.1271 83.3552 29.79 83.7023 30.2883ZM102.558 28.9397L106.985 34.031L103.695 33.8638L100.052 29.6595L99.848 33.6683L97.2414 33.5358L97.4452 29.527L93.3944 33.3402L90.1046 33.173L95.0253 28.5569L90.8269 23.9278L94.1885 24.0986L97.5338 27.7832L97.712 24.2777L100.319 24.4102L100.14 27.9157L103.842 24.5893L107.204 24.7602L102.558 28.9397ZM115.3 28.506L115.469 25.1803L118.076 25.3128L117.605 34.5709L114.999 34.4384L115.193 30.6093L111.149 30.4037L110.954 34.2328L108.347 34.1003L108.818 24.8422L111.425 24.9747L111.256 28.3004L115.3 28.506ZM124.024 35.1675C122.621 35.0962 121.518 34.5895 120.713 33.6474C119.907 32.7053 119.542 31.4972 119.617 30.0231C119.693 28.5371 120.178 27.3722 121.074 26.5286C121.97 25.685 123.119 25.2988 124.522 25.3701C125.924 25.4414 127.028 25.9421 127.834 26.8722C128.639 27.8023 129.005 29.0104 128.929 30.4965C128.854 31.9825 128.361 33.1531 127.453 34.008C126.557 34.8517 125.414 35.2381 124.024 35.1675ZM122.693 32.2702C123.04 32.7684 123.519 33.0331 124.131 33.0642C124.742 33.0952 125.245 32.8865 125.64 32.438C126.036 31.9775 126.261 31.3341 126.315 30.5078L126.33 30.2201C126.347 29.404 126.182 28.7528 125.834 28.2665C125.499 27.7688 125.026 27.5045 124.415 27.4734C123.804 27.4423 123.3 27.657 122.904 28.1175C122.509 28.566 122.284 29.1975 122.231 30.0118L122.217 30.2815C122.187 31.109 122.346 31.7719 122.693 32.2702ZM138.249 26.3382L138.142 28.4415L133.648 28.2131L133.285 35.3678L130.678 35.2353L131.149 25.9773L138.249 26.3382ZM143.335 36.149C141.932 36.0778 140.829 35.5711 140.024 34.629C139.218 33.6869 138.853 32.4788 138.928 31.0047C139.004 29.5186 139.489 28.3538 140.385 27.5102C141.281 26.6666 142.43 26.2804 143.833 26.3517C145.235 26.4229 146.339 26.9236 147.145 27.8537C147.95 28.7838 148.316 29.9919 148.24 31.478C148.165 32.9641 147.673 34.1346 146.764 34.9896C145.868 35.8332 144.725 36.2197 143.335 36.149ZM142.004 33.2517C142.351 33.75 142.83 34.0147 143.442 34.0457C144.053 34.0768 144.556 33.8681 144.951 33.4196C145.347 32.9591 145.572 32.3157 145.626 31.4893L145.641 31.2017C145.658 30.3855 145.493 29.7343 145.145 29.248C144.81 28.7504 144.337 28.486 143.726 28.455C143.115 28.4239 142.611 28.6386 142.215 29.0991C141.82 29.5476 141.595 30.179 141.542 30.9934L141.528 31.263C141.498 32.0906 141.657 32.7535 142.004 33.2517ZM159.173 34.1605L162.266 27.559L164.855 27.6906L159.175 39.0989C158.545 40.3766 157.517 40.9792 156.091 40.9067L153.862 40.7934L153.969 38.6901L155.677 38.7769C156.348 38.811 156.824 38.5349 157.106 37.9484L157.63 36.8576C157.723 36.6941 157.731 36.5263 157.656 36.3543L154.249 27.1515L156.82 27.2821L159.173 34.1605ZM172.458 27.8067C173.585 27.864 174.486 28.3483 175.16 29.2597C175.847 30.1718 176.151 31.3888 176.074 32.9108C176.001 34.349 175.582 35.5052 174.816 36.3794C174.051 37.2537 173.093 37.6616 171.942 37.6031C171.08 37.5593 170.348 37.2878 169.749 36.7887C169.162 36.2903 168.763 35.6272 168.552 34.7994L168.463 34.7949L168.137 41.1946L165.531 41.0621L166.207 27.7593L168.813 27.8918L168.693 30.2647L168.783 30.2693C169.063 29.4785 169.533 28.8596 170.193 28.4125C170.852 27.9654 171.608 27.7634 172.458 27.8067ZM173.458 32.9581L173.476 32.6165C173.495 31.7644 173.29 31.0631 172.862 30.5127C172.445 29.9628 171.895 29.6705 171.212 29.6358C170.529 29.6011 169.952 29.8421 169.481 30.3588C169.022 30.8762 168.759 31.5597 168.692 32.4094L168.677 32.6971C168.645 33.5606 168.832 34.2669 169.236 34.8162C169.654 35.354 170.21 35.6407 170.905 35.676C171.588 35.7107 172.164 35.4817 172.634 34.9889C173.104 34.4961 173.378 33.8192 173.458 32.9581ZM182.097 38.1193C180.695 38.048 179.591 37.5413 178.786 36.5992C177.981 35.6572 177.616 34.4491 177.691 32.975C177.766 31.4889 178.252 30.324 179.148 29.4804C180.044 28.6368 181.193 28.2507 182.595 28.3219C183.997 28.3932 185.101 28.8939 185.907 29.824C186.713 30.7541 187.078 31.9622 187.003 33.4483C186.927 34.9344 186.435 36.1049 185.526 36.9599C184.63 37.8035 183.487 38.19 182.097 38.1193ZM180.766 35.222C181.114 35.7203 181.593 35.9849 182.204 36.016C182.815 36.0471 183.318 35.8383 183.714 35.3898C184.11 34.9293 184.335 34.2859 184.389 33.4596L184.403 33.172C184.421 32.3558 184.256 31.7046 183.908 31.2183C183.573 30.7207 183.099 30.4563 182.488 30.4252C181.877 30.3942 181.373 30.6089 180.978 31.0694C180.582 31.5179 180.358 32.1493 180.305 32.9636L180.291 33.2333C180.261 34.0608 180.419 34.7237 180.766 35.222ZM194.086 33.592L198.747 38.6952L195.403 38.5253L191.562 34.3108L191.358 38.3197L188.751 38.1872L189.222 28.9291L191.829 29.0616L191.65 32.5671L195.55 29.2508L198.965 29.4244L194.086 33.592ZM204.747 36.477L207.84 29.8755L210.429 30.0071L204.749 41.4154C204.119 42.6931 203.091 43.2957 201.665 43.2232L199.436 43.1099L199.543 41.0066L201.251 41.0934C201.922 41.1275 202.398 40.8514 202.68 40.2649L203.204 39.1741C203.297 39.0106 203.305 38.8428 203.23 38.6708L199.823 29.468L202.394 29.5986L204.747 36.477ZM225.796 30.7882L225.326 40.0462L222.719 39.9137L223.083 32.759L219.038 32.5534L218.674 39.7081L216.068 39.5756L216.538 30.3176L225.796 30.7882ZM231.744 40.6428C230.342 40.5715 229.238 40.0648 228.433 39.1228C227.628 38.1807 227.262 36.9726 227.337 35.4985C227.413 34.0124 227.899 32.8476 228.795 32.0039C229.691 31.1603 230.84 30.7742 232.242 30.8454C233.644 30.9167 234.748 31.4174 235.554 32.3475C236.36 33.2776 236.725 34.4857 236.649 35.9718C236.574 37.4579 236.082 38.6284 235.173 39.4834C234.277 40.327 233.134 40.7135 231.744 40.6428ZM230.413 37.7455C230.76 38.2438 231.24 38.5084 231.851 38.5395C232.462 38.5706 232.965 38.3619 233.361 37.9133C233.756 37.4529 233.981 36.8094 234.035 35.9831L234.05 35.6955C234.068 34.8793 233.902 34.2281 233.555 33.7418C233.219 33.2442 232.746 32.9798 232.135 32.9487C231.524 32.9177 231.02 33.1324 230.624 33.5929C230.229 34.0414 230.005 34.6728 229.951 35.4872L229.938 35.7568C229.908 36.5843 230.066 37.2473 230.413 37.7455ZM108.027 44.8639L107.506 44.8374L107.626 42.4825L108.597 42.5318C109.747 42.5903 110.348 42.1222 110.398 41.1275L110.41 40.8938L113.142 41.0327L112.466 54.3355L109.734 54.1966L110.254 43.9678L110.164 43.9632C110.013 44.328 109.772 44.5801 109.441 44.7195C109.122 44.8475 108.651 44.8956 108.027 44.8639ZM115.249 47.8083C115.361 45.6152 115.903 43.9365 116.875 42.7724C117.847 41.6082 119.154 41.0679 120.796 41.1513C122.45 41.2354 123.702 41.9058 124.551 43.1625C125.401 44.4073 125.77 46.1322 125.658 48.3374C125.546 50.5425 125.003 52.2272 124.031 53.3913C123.059 54.5435 121.746 55.0775 120.093 54.9935C118.451 54.91 117.205 54.2459 116.355 53.0012C115.506 51.7444 115.137 50.0135 115.249 47.8083ZM117.996 47.6596L117.967 48.2348C117.916 49.7102 118.071 50.8054 118.431 51.5206C118.803 52.2364 119.396 52.6151 120.211 52.6565C121.026 52.6979 121.655 52.3814 122.098 51.707C122.541 51.0326 122.812 49.959 122.911 48.4861L122.94 47.9109C122.991 46.4356 122.83 45.34 122.458 44.6242C122.086 43.9084 121.492 43.5297 120.677 43.4883C119.083 43.4073 118.19 44.7977 117.996 47.6596ZM127.806 50.9518L127.896 49.1721L134.08 49.4864L133.99 51.2661L127.806 50.9518ZM136.678 46.3202L136.157 46.2937L136.276 43.9388L137.247 43.9881C138.398 44.0466 138.998 43.5785 139.049 42.5837L139.061 42.35L141.793 42.4889L141.117 55.7918L138.384 55.6529L138.904 45.4241L138.814 45.4195C138.664 45.7843 138.423 46.0364 138.091 46.1758C137.772 46.3037 137.301 46.3519 136.678 46.3202ZM150.205 47.17C151.463 47.2339 152.444 47.6863 153.146 48.527C153.848 49.3678 154.163 50.4952 154.091 51.9094C154.019 53.3355 153.499 54.4686 152.531 55.3085C151.563 56.1485 150.306 56.5292 148.76 56.4506C147.262 56.3745 146.048 55.9102 145.118 55.0579C144.188 54.2056 143.753 53.1922 143.812 52.0177L143.822 51.838L146.554 51.9769L146.55 52.0667C146.541 52.7031 146.736 53.2357 147.135 53.6645C147.547 54.082 148.094 54.308 148.777 54.3427C149.544 54.3817 150.156 54.1605 150.613 53.6791C151.07 53.1977 151.327 52.5138 151.384 51.6276C151.441 50.7533 151.283 50.0605 150.913 49.549C150.543 49.0256 150.005 48.7459 149.297 48.7099C148.831 48.6742 148.406 48.7607 148.023 48.9695C147.64 49.1664 147.355 49.4583 147.167 49.8452L144.363 49.7027L145.279 42.6661L154.268 43.123L154.16 45.2443L147.616 44.9117L147.168 48.4034L147.274 48.4449C147.934 47.5292 148.91 47.1042 150.205 47.17ZM161.656 55.7543C160.826 54.811 160.449 53.6023 160.524 52.1282C160.599 50.6541 161.091 49.4956 161.999 48.6526C162.919 47.7982 164.087 47.407 165.501 47.4789C166.747 47.5422 167.754 47.9478 168.521 48.6957C169.288 49.4317 169.698 50.3656 169.748 51.4977L167.142 51.3652C167.084 50.8456 166.895 50.4274 166.574 50.1108C166.255 49.7821 165.849 49.6053 165.358 49.5803C164.747 49.5493 164.237 49.7697 163.828 50.2415C163.432 50.714 163.201 51.3451 163.137 52.1349L163.124 52.4045C163.107 53.1967 163.273 53.848 163.619 54.3582C163.978 54.8691 164.462 55.14 165.074 55.1711C165.565 55.1961 165.986 55.0673 166.337 54.7847C166.688 54.4902 166.919 54.0814 167.03 53.5583L169.637 53.6908C169.472 54.8119 168.97 55.7056 168.131 56.3718C167.304 57.0387 166.261 57.3402 165.003 57.2762C163.601 57.2049 162.485 56.6977 161.656 55.7543ZM182.006 48.5881L181.535 57.8462L178.928 57.7137L179.292 50.5589L175.481 50.3652L175.287 54.1763C175.232 55.2669 174.902 56.0852 174.297 56.6312C173.694 57.1653 172.852 57.4049 171.774 57.35L170.354 57.2778L170.46 55.1746L171.395 55.2221C171.779 55.2416 172.084 55.1549 172.31 54.9622C172.536 54.7574 172.66 54.4573 172.68 54.0618L172.981 48.1294L182.006 48.5881ZM184.05 47.1421L184.168 44.8231L186.775 44.9556L186.657 47.2746L184.05 47.1421ZM183.501 57.9461L183.972 48.6881L186.578 48.8206L186.108 58.0786L183.501 57.9461ZM195.256 53.5872L195.252 53.6591C195.822 53.7962 196.276 54.0896 196.613 54.5394C196.963 54.9897 197.123 55.5085 197.093 56.0957C197.054 56.8507 196.748 57.4479 196.173 57.8873C195.61 58.3273 194.861 58.5235 193.926 58.476L188.245 58.1873L188.716 48.9292L194.468 49.2216C195.211 49.2594 195.806 49.5059 196.251 49.9611C196.697 50.4163 196.903 50.9615 196.871 51.5966C196.845 52.1 196.685 52.5304 196.391 52.8879C196.096 53.2454 195.718 53.4785 195.256 53.5872ZM194.23 51.7868C194.262 51.1636 193.84 50.8298 192.965 50.7853L191.239 50.6976L191.14 52.6571L192.883 52.7457C193.291 52.7664 193.613 52.6927 193.85 52.5245C194.087 52.3563 194.213 52.1104 194.23 51.7868ZM190.935 56.6839L192.859 56.7816C193.901 56.8346 194.443 56.4656 194.483 55.6747C194.524 54.8597 194.042 54.4267 193.035 54.3755L191.057 54.275L190.935 56.6839ZM80.3239 65.6804L80.4372 63.4513L83.0438 63.5838L82.5732 72.8419L79.9666 72.7094L80.0872 70.3364L79.9793 70.3309C79.6982 71.1337 79.2339 71.7589 78.5863 72.2066C77.9394 72.6424 77.1964 72.8389 76.3575 72.7963C75.207 72.7378 74.2885 72.2525 73.6019 71.3405C72.9273 70.4291 72.6287 69.2124 72.706 67.6903C72.7834 66.1683 73.2155 64.9947 74.0024 64.1696C74.7899 63.3325 75.7829 62.9444 76.9814 63.0053C77.7484 63.0443 78.4259 63.307 79.014 63.7935C79.602 64.28 80.0027 64.9071 80.216 65.675L80.3239 65.6804ZM80.0701 68.1908L80.0847 67.9032C80.1166 67.0397 79.9239 66.339 79.5067 65.8011C79.1021 65.2519 78.5582 64.9599 77.8751 64.9252C77.18 64.8898 76.5976 65.1186 76.128 65.6113C75.6583 66.1041 75.3896 66.7814 75.3218 67.643L75.3044 67.9846C75.2851 68.8367 75.4838 69.5377 75.9004 70.0876C76.3291 70.638 76.8849 70.9306 77.568 70.9654C78.2512 71.0001 78.8221 70.7587 79.281 70.2414C79.7518 69.7246 80.0149 69.0411 80.0701 68.1908ZM91.6854 67.3573L91.8544 64.0316L94.461 64.1641L93.9905 73.4222L91.3838 73.2897L91.5785 69.4606L87.5337 69.255L87.339 73.0841L84.7324 72.9516L85.203 63.6936L87.8096 63.826L87.6406 67.1518L91.6854 67.3573ZM103.697 64.6336L103.59 66.7369L99.0962 66.5085L98.7325 73.6632L96.1259 73.5307L96.5965 64.2727L103.697 64.6336ZM114.622 65.1889L114.151 74.447L111.545 74.3145L111.908 67.1597L108.097 66.966L107.904 70.7771C107.848 71.8677 107.518 72.686 106.914 73.232C106.31 73.766 105.469 74.0056 104.39 73.9508L102.97 73.8786L103.077 71.7753L104.012 71.8228C104.395 71.8423 104.7 71.7557 104.926 71.5629C105.153 71.3582 105.276 71.058 105.296 70.6625L105.598 64.7302L114.622 65.1889ZM116.667 63.7428L116.784 61.4238L119.391 61.5563L119.273 63.8753L116.667 63.7428ZM116.117 74.5469L116.588 65.2888L119.195 65.4213L118.724 74.6794L116.117 74.5469ZM127.925 63.8285C127.462 64.1894 126.877 64.3519 126.17 64.316C125.463 64.2801 124.892 64.0528 124.456 63.6341C124.033 63.2161 123.838 62.6715 123.873 62.0004L123.88 61.8566L125.282 61.9278L125.277 62.0357C125.26 62.3593 125.343 62.6278 125.524 62.8413C125.705 63.0548 125.94 63.1688 126.228 63.1835C126.515 63.1981 126.76 63.1084 126.962 62.9144C127.164 62.7204 127.274 62.4616 127.29 62.138L127.295 62.0302L128.698 62.1015L128.69 62.2453C128.656 62.9284 128.401 63.4561 127.925 63.8285ZM130.716 66.0069L130.245 75.265L127.639 75.1325L127.951 68.9844L123.738 74.9342L120.862 74.788L121.332 65.53L123.939 65.6625L123.626 71.8105L127.84 65.8607L130.716 66.0069ZM133.386 74.3432C132.556 73.3999 132.179 72.1912 132.254 70.7171C132.329 69.243 132.821 68.0845 133.728 67.2415C134.649 66.3871 135.816 65.9958 137.231 66.0677C138.477 66.1311 139.484 66.5367 140.251 67.2846C141.018 68.0205 141.427 68.9545 141.478 70.0865L138.871 69.954C138.814 69.4344 138.625 69.0163 138.304 68.6996C137.985 68.371 137.579 68.1942 137.088 68.1692C136.477 68.1381 135.967 68.3585 135.558 68.8304C135.162 69.3029 134.931 69.934 134.867 70.7238L134.853 70.9934C134.837 71.7856 135.002 72.4368 135.349 72.9471C135.707 73.4579 136.192 73.7289 136.804 73.76C137.295 73.7849 137.716 73.6562 138.067 73.3736C138.418 73.0791 138.649 72.6703 138.76 72.1472L141.367 72.2797C141.201 73.4008 140.699 74.2944 139.861 74.9607C139.034 75.6276 137.991 75.929 136.733 75.8651C135.33 75.7938 134.215 75.2865 133.386 74.3432ZM151.117 71.1532C151.678 71.6984 151.935 72.4384 151.887 73.3732C151.84 74.308 151.509 75.0241 150.895 75.5216C150.281 76.0191 149.471 76.2422 148.464 76.191L142.999 75.9133L143.47 66.6552L146.076 66.7877L145.907 70.1134L148.694 70.255C149.748 70.3086 150.556 70.608 151.117 71.1532ZM145.807 72.0909L145.694 74.302L147.851 74.4116C148.75 74.4573 149.218 74.1146 149.255 73.3836C149.273 73.036 149.167 72.7603 148.937 72.5564C148.72 72.3411 148.407 72.223 148 72.2023L145.807 72.0909ZM158.831 71.8517L163.492 76.9549L160.149 76.785L156.308 72.5705L156.104 76.5794L153.497 76.4469L153.968 67.1888L156.574 67.3213L156.396 70.8268L160.296 67.5105L163.711 67.6841L158.831 71.8517ZM168.471 77.4783C167.069 77.4071 165.965 76.9004 165.16 75.9583C164.355 75.0162 163.99 73.8081 164.065 72.334C164.14 70.8479 164.626 69.6831 165.522 68.8395C166.418 67.9959 167.567 67.6097 168.969 67.681C170.371 67.7523 171.475 68.2529 172.281 69.183C173.087 70.1132 173.452 71.3212 173.377 72.8073C173.301 74.2934 172.809 75.4639 171.9 76.3189C171.004 77.1625 169.861 77.549 168.471 77.4783ZM167.141 74.581C167.488 75.0793 167.967 75.344 168.578 75.375C169.189 75.4061 169.693 75.1974 170.088 74.7489C170.484 74.2884 170.709 73.645 170.763 72.8186L170.777 72.531C170.795 71.7149 170.63 71.0636 170.282 70.5774C169.947 70.0797 169.473 69.8153 168.862 69.7843C168.251 69.7532 167.748 69.9679 167.352 70.4284C166.956 70.8769 166.732 71.5083 166.679 72.3227L166.665 72.5923C166.635 73.4199 166.793 74.0828 167.141 74.581ZM185.084 68.5001C186.486 68.5713 187.59 69.072 188.396 70.0021C189.201 70.9322 189.567 72.1403 189.491 73.6264C189.415 75.1125 188.923 76.283 188.015 77.138C187.119 77.9816 185.976 78.3681 184.586 78.2974C183.315 78.2328 182.285 77.808 181.496 77.0229C180.707 76.2379 180.266 75.2182 180.174 73.9639L177.927 73.8497L177.732 77.6787L175.125 77.5462L175.596 68.2882L178.203 68.4207L178.034 71.7464L180.353 71.8642C180.649 70.7619 181.215 69.9135 182.05 69.3191C182.886 68.7128 183.897 68.4398 185.084 68.5001ZM186.877 73.6377L186.892 73.3501C186.909 72.5339 186.744 71.8827 186.396 71.3964C186.049 70.8982 185.576 70.6338 184.977 70.6033C184.365 70.5723 183.862 70.787 183.466 71.2475C183.071 71.696 182.84 72.3271 182.775 73.1409L182.761 73.4105C182.731 74.238 182.89 74.901 183.237 75.3992C183.596 75.8981 184.081 76.1631 184.692 76.1941C185.304 76.2252 185.807 76.0165 186.202 75.568C186.598 75.1075 186.823 74.4641 186.877 73.6377ZM205.821 69.8245L205.454 77.0332L206.839 77.1035L206.621 81.382L204.392 81.2687L204.505 79.0396L197.225 78.6695L197.111 80.8986L194.882 80.7853L195.103 76.4529L195.336 76.4648C196.319 76.5147 196.831 76.1322 196.872 75.3173L197.174 69.385L205.821 69.8245ZM198.019 76.5111L198.015 76.6009L202.851 76.8467L203.107 71.7953L199.674 71.6207L199.532 74.4071C199.5 75.0303 199.368 75.5042 199.135 75.8288C198.915 76.1421 198.543 76.3695 198.019 76.5111ZM219.639 70.5268L219.168 79.7849L216.562 79.6524L216.925 72.4976L213.114 72.3039L212.92 76.115C212.865 77.2056 212.535 78.0239 211.931 78.5699C211.327 79.1039 210.485 79.3435 209.407 79.2887L207.987 79.2165L208.094 77.1132L209.028 77.1608C209.412 77.1802 209.717 77.0936 209.943 76.9008C210.169 76.6961 210.293 76.396 210.313 76.0005L210.614 70.0681L219.639 70.5268ZM229.872 71.0469L229.401 80.305L226.794 80.1725L226.98 76.5232L225.398 76.4428C224.835 76.4142 224.448 76.6889 224.238 77.267L223.253 79.9925L220.556 79.8554L221.643 76.9188C221.782 76.5534 221.945 76.2913 222.133 76.1327C222.322 75.974 222.585 75.8733 222.924 75.8304L222.927 75.7585C222.373 75.5621 221.956 75.2525 221.677 74.8298C221.399 74.3952 221.274 73.8842 221.304 73.2969C221.344 72.5179 221.628 71.8896 222.157 71.4118C222.698 70.9346 223.37 70.7165 224.173 70.7573L229.872 71.0469ZM225.196 74.7384L227.066 74.8334L227.18 72.5863L225.31 72.4913C224.891 72.4699 224.556 72.5551 224.306 72.7466C224.057 72.9262 223.923 73.1957 223.904 73.5553C223.867 74.2983 224.297 74.6927 225.196 74.7384ZM85.5402 88.1522L90.2011 93.2554L86.8575 93.0854L83.0164 88.871L82.8127 92.8798L80.206 92.7474L80.6766 83.4893L83.2833 83.6218L83.1051 87.1273L87.0045 83.8109L90.42 83.9846L85.5402 88.1522ZM95.1801 93.7788C93.7779 93.7075 92.6742 93.2009 91.869 92.2588C91.0637 91.3167 90.6986 90.1086 90.7735 88.6345C90.8491 87.1484 91.3348 85.9836 92.2308 85.14C93.1268 84.2964 94.2759 83.9102 95.6781 83.9815C97.0803 84.0527 98.1843 84.5534 98.9901 85.4835C99.7959 86.4136 100.161 87.6217 100.086 89.1078C100.01 90.5939 99.5179 91.7644 98.6093 92.6194C97.7134 93.463 96.5703 93.8495 95.1801 93.7788ZM93.8494 90.8815C94.1966 91.3798 94.6758 91.6445 95.287 91.6755C95.8982 91.7066 96.4014 91.4979 96.7967 91.0494C97.1926 90.5889 97.4175 89.9455 97.4716 89.1191L97.4862 88.8315C97.5036 88.0153 97.3385 87.3641 96.9907 86.8778C96.6556 86.3802 96.1824 86.1158 95.5712 86.0848C94.9599 86.0537 94.4564 86.2684 94.0605 86.7289C93.6652 87.1774 93.4409 87.8088 93.3875 88.6232L93.3738 88.8928C93.3437 89.7204 93.5023 90.3833 93.8494 90.8815ZM112.372 85.1004L111.901 94.3584L109.295 94.2259L109.61 88.0239L107.585 90.9849L106.453 90.9274L104.754 87.8132L104.441 93.9792L101.834 93.8467L102.305 84.5887L105.163 84.7339L107.153 88.4938L109.478 84.9532L112.372 85.1004ZM123.764 85.6794L123.293 94.9375L120.687 94.805L121.051 87.6502L117.006 87.4446L116.642 94.5994L114.035 94.4669L114.506 85.2088L123.764 85.6794ZM136.218 86.3124L135.748 95.5705L133.141 95.438L133.505 88.2832L129.694 88.0895L129.5 91.9006C129.444 92.9912 129.114 93.8095 128.51 94.3555C127.906 94.8895 127.065 95.1291 125.986 95.0743L124.566 95.0021L124.673 92.8989L125.608 92.9464C125.991 92.9659 126.296 92.8792 126.522 92.6864C126.749 92.4817 126.872 92.1816 126.892 91.7861L127.194 85.8537L136.218 86.3124ZM146.941 91.4174L146.925 91.741L140.363 91.4074C140.336 92.1751 140.503 92.8023 140.862 93.2892C141.234 93.7767 141.72 94.0357 142.319 94.0661C142.786 94.0899 143.188 93.9782 143.525 93.731C143.875 93.4724 144.103 93.1295 144.209 92.7023L146.815 92.8348C146.618 93.8701 146.107 94.7033 145.282 95.3342C144.47 95.9538 143.452 96.2325 142.23 96.1703C140.828 96.0991 139.712 95.5918 138.883 94.6485C138.066 93.7058 137.695 92.4974 137.77 91.0233C137.844 89.5492 138.336 88.3906 139.244 87.5476C140.164 86.6933 141.326 86.3017 142.728 86.373C144.094 86.4424 145.151 86.9347 145.897 87.8498C146.644 88.7528 146.992 89.9421 146.941 91.4174ZM142.603 88.4753C142.076 88.4485 141.617 88.6115 141.226 88.9641C140.836 89.3167 140.583 89.8025 140.468 90.4215L144.315 90.617C144.249 90.0129 144.082 89.5118 143.814 89.1137C143.546 88.7155 143.142 88.5028 142.603 88.4753ZM153.831 91.6234L158.492 96.7266L155.148 96.5566L151.307 92.3422L151.103 96.351L148.497 96.2185L148.967 86.9605L151.574 87.093L151.396 90.5984L155.295 87.2821L158.711 87.4557L153.831 91.6234ZM160.196 95.7318C159.366 94.7885 158.989 93.5798 159.064 92.1057C159.139 90.6316 159.631 89.473 160.539 88.63C161.459 87.7757 162.627 87.3844 164.041 87.4563C165.287 87.5196 166.294 87.9253 167.061 88.6732C167.828 89.4091 168.238 90.3431 168.288 91.4751L165.682 91.3426C165.624 90.823 165.435 90.4049 165.114 90.0882C164.795 89.7595 164.389 89.5827 163.898 89.5577C163.287 89.5267 162.777 89.7471 162.368 90.219C161.972 90.6914 161.741 91.3226 161.677 92.1123L161.664 92.382C161.647 93.1742 161.813 93.8254 162.159 94.3356C162.518 94.8465 163.002 95.1175 163.614 95.1485C164.105 95.1735 164.526 95.0447 164.877 94.7622C165.228 94.4676 165.459 94.0588 165.57 93.5358L168.177 93.6683C168.012 94.7893 167.51 95.683 166.671 96.3493C165.844 97.0161 164.801 97.3176 163.543 97.2536C162.141 97.1824 161.025 96.6751 160.196 95.7318ZM178.91 93.0423L178.893 93.3659L172.332 93.0324C172.305 93.8 172.471 94.4272 172.831 94.9141C173.203 95.4016 173.688 95.6606 174.287 95.6911C174.755 95.7148 175.157 95.6031 175.494 95.3559C175.844 95.0973 176.071 94.7544 176.177 94.3272L178.784 94.4597C178.587 95.4951 178.076 96.3282 177.251 96.9591C176.438 97.5787 175.421 97.8574 174.198 97.7953C172.796 97.724 171.681 97.2167 170.851 96.2734C170.034 95.3307 169.663 94.1223 169.738 92.6482C169.813 91.1741 170.304 90.0156 171.212 89.1726C172.133 88.3182 173.294 87.9266 174.696 87.9979C176.063 88.0674 177.119 88.5596 177.866 89.4747C178.613 90.3778 178.961 91.567 178.91 93.0423ZM174.572 90.1003C174.044 90.0735 173.585 90.2364 173.195 90.589C172.805 90.9417 172.552 91.4275 172.436 92.0464L176.283 92.2419C176.218 91.6378 176.051 91.1367 175.783 90.7386C175.515 90.3405 175.111 90.1277 174.572 90.1003ZM184.801 98.3342C183.399 98.2629 182.295 97.7562 181.49 96.8141C180.684 95.872 180.319 94.6639 180.394 93.1898C180.47 91.7038 180.955 90.5389 181.851 89.6953C182.747 88.8517 183.897 88.4655 185.299 88.5368C186.701 88.6081 187.805 89.1088 188.611 90.0389C189.417 90.969 189.782 92.1771 189.706 93.6632C189.631 95.1492 189.139 96.3198 188.23 97.1748C187.334 98.0184 186.191 98.4048 184.801 98.3342ZM183.47 95.4369C183.817 95.9352 184.296 96.1998 184.908 96.2309C185.519 96.262 186.022 96.0532 186.417 95.6047C186.813 95.1442 187.038 94.5008 187.092 93.6745L187.107 93.3869C187.124 92.5707 186.959 91.9195 186.611 91.4332C186.276 90.9355 185.803 90.6712 185.192 90.6401C184.581 90.609 184.077 90.8237 183.681 91.2842C183.286 91.7328 183.062 92.3642 183.008 93.1785L182.994 93.4482C182.964 94.2757 183.123 94.9386 183.47 95.4369ZM198.408 92.8078L198.577 89.4821L201.184 89.6146L200.713 98.8726L198.106 98.7401L198.301 94.9111L194.256 94.7055L194.062 98.5345L191.455 98.4021L191.926 89.144L194.532 89.2765L194.363 92.6022L198.408 92.8078ZM210.42 90.0841L210.313 92.1873L205.819 91.9589L205.455 99.1137L202.848 98.9812L203.319 89.7231L210.42 90.0841ZM215.505 99.8949C214.103 99.8236 212.999 99.3169 212.194 98.3748C211.389 97.4327 211.024 96.2246 211.099 94.7505C211.174 93.2644 211.66 92.0996 212.556 91.256C213.452 90.4124 214.601 90.0262 216.003 90.0975C217.405 90.1688 218.509 90.6695 219.315 91.5996C220.121 92.5297 220.486 93.7378 220.411 95.2239C220.335 96.7099 219.843 97.8805 218.934 98.7354C218.038 99.579 216.895 99.9655 215.505 99.8949ZM214.175 96.9976C214.522 97.4958 215.001 97.7605 215.612 97.7916C216.223 97.8226 216.727 97.6139 217.122 97.1654C217.518 96.7049 217.743 96.0615 217.797 95.2352L217.811 94.9475C217.829 94.1314 217.664 93.4802 217.316 92.9939C216.981 92.4962 216.507 92.2319 215.896 92.2008C215.285 92.1697 214.782 92.3844 214.386 92.8449C213.99 93.2934 213.766 93.9249 213.713 94.7392L213.699 95.0089C213.669 95.8364 213.827 96.4993 214.175 96.9976ZM112.02 108.443L112.19 105.117L114.796 105.249L114.326 114.507L111.719 114.375L111.914 110.546L107.869 110.34L107.674 114.169L105.068 114.037L105.538 104.779L108.145 104.911L107.976 108.237L112.02 108.443ZM123.955 107.95L124.068 105.721L126.675 105.853L126.204 115.111L123.598 114.979L123.718 112.606L123.611 112.6C123.329 113.403 122.865 114.028 122.218 114.476C121.571 114.912 120.828 115.108 119.989 115.066C118.838 115.007 117.92 114.522 117.233 113.61C116.558 112.698 116.26 111.482 116.337 109.96C116.415 108.438 116.847 107.264 117.634 106.439C118.421 105.602 119.414 105.214 120.613 105.275C121.38 105.314 122.057 105.576 122.645 106.063C123.233 106.549 123.634 107.177 123.847 107.944L123.955 107.95ZM123.701 110.46L123.716 110.173C123.748 109.309 123.555 108.608 123.138 108.07C122.733 107.521 122.189 107.229 121.506 107.195C120.811 107.159 120.229 107.388 119.759 107.881C119.29 108.374 119.021 109.051 118.953 109.912L118.936 110.254C118.916 111.106 119.115 111.807 119.532 112.357C119.96 112.907 120.516 113.2 121.199 113.235C121.882 113.269 122.453 113.028 122.912 112.511C123.383 111.994 123.646 111.31 123.701 110.46ZM135.374 110.621L135.371 110.693C135.94 110.83 136.394 111.123 136.732 111.573C137.081 112.023 137.241 112.542 137.211 113.129C137.173 113.884 136.866 114.482 136.291 114.921C135.728 115.361 134.979 115.557 134.044 115.51L128.364 115.221L128.834 105.963L134.587 106.255C135.33 106.293 135.924 106.54 136.37 106.995C136.815 107.45 137.022 107.995 136.989 108.63C136.964 109.134 136.804 109.564 136.509 109.922C136.215 110.279 135.836 110.512 135.374 110.621ZM134.348 108.821C134.38 108.197 133.958 107.864 133.083 107.819L131.358 107.731L131.258 109.691L133.002 109.779C133.409 109.8 133.731 109.726 133.968 109.558C134.205 109.39 134.332 109.144 134.348 108.821ZM131.053 113.718L132.977 113.815C134.02 113.868 134.561 113.499 134.601 112.708C134.643 111.893 134.16 111.46 133.153 111.409L131.176 111.309L131.053 113.718ZM145.894 109.552L146.032 106.837L148.656 106.97L148.186 116.229L145.561 116.095L145.827 110.864L145.737 110.859C144.824 112.507 143.565 113.29 141.959 113.209C140.928 113.156 140.112 112.784 139.51 112.093C138.909 111.389 138.636 110.498 138.691 109.42L138.841 106.472L141.447 106.604L141.343 108.653C141.302 109.456 141.439 110.088 141.752 110.549C142.065 110.997 142.546 111.238 143.193 111.271C143.744 111.299 144.256 111.162 144.728 110.862C145.199 110.562 145.588 110.125 145.894 109.552ZM157.82 109.671L157.933 107.442L160.54 107.574L160.069 116.833L157.462 116.7L157.583 114.327L157.475 114.322C157.194 115.124 156.73 115.75 156.082 116.197C155.435 116.633 154.692 116.83 153.853 116.787C152.703 116.728 151.784 116.243 151.098 115.331C150.423 114.42 150.124 113.203 150.202 111.681C150.279 110.159 150.711 108.985 151.498 108.16C152.286 107.323 153.279 106.935 154.477 106.996C155.244 107.035 155.922 107.298 156.51 107.784C157.098 108.271 157.498 108.898 157.712 109.666L157.82 109.671ZM157.566 112.181L157.58 111.894C157.612 111.03 157.42 110.33 157.002 109.792C156.598 109.243 156.054 108.951 155.371 108.916C154.676 108.881 154.093 109.109 153.624 109.602C153.154 110.095 152.885 110.772 152.817 111.634L152.8 111.975C152.781 112.827 152.98 113.528 153.396 114.078C153.825 114.629 154.381 114.921 155.064 114.956C155.747 114.991 156.318 114.749 156.777 114.232C157.248 113.715 157.511 113.032 157.566 112.181ZM169.181 111.348L169.35 108.022L171.957 108.155L171.486 117.413L168.88 117.28L169.074 113.451L165.029 113.246L164.835 117.075L162.228 116.942L162.699 107.684L165.305 107.817L165.136 111.142L169.181 111.348ZM180.575 111.927L180.744 108.601L183.35 108.734L182.88 117.992L180.273 117.86L180.468 114.03L176.423 113.825L176.228 117.654L173.622 117.521L174.092 108.263L176.699 108.396L176.53 111.722L180.575 111.927ZM193.573 109.254L193.102 118.512L190.495 118.379L190.681 114.73L189.099 114.649C188.536 114.621 188.149 114.896 187.94 115.474L186.954 118.199L184.258 118.062L185.344 115.125C185.483 114.76 185.646 114.498 185.835 114.339C186.023 114.181 186.286 114.08 186.625 114.037L186.629 113.965C186.074 113.769 185.657 113.459 185.378 113.036C185.1 112.602 184.976 112.091 185.005 111.504C185.045 110.725 185.329 110.096 185.858 109.618C186.399 109.141 187.071 108.923 187.874 108.964L193.573 109.254ZM188.897 112.945L190.767 113.04L190.881 110.793L189.012 110.698C188.592 110.677 188.257 110.762 188.007 110.953C187.758 111.133 187.624 111.402 187.606 111.762C187.568 112.505 187.998 112.899 188.897 112.945Z" fill="white"/>
<defs>
<clipPath id="clip0_497_415">
<rect width="404" height="255.849" fill="white" transform="translate(88 159)"/>
</clipPath>
<clipPath id="clip1_497_415">
<rect width="69.4884" height="54.4639" fill="white" transform="matrix(-1 0 0 1 330.74 220.037)"/>
</clipPath>
</defs>
</svg>
