<svg width="335" height="509" viewBox="0 0 335 509" fill="none" xmlns="http://www.w3.org/2000/svg">
<path d="M305.837 375.418L277.908 485.946L273.809 502.183L239 493.5L236.603 492.881C233.811 492.159 232.176 489.264 233 486.5V486.5L235.5 478L259.175 382L167.045 337.757L141.371 325.43L149.562 308.5H206.63H206.662L294.152 350.53C298.678 352.703 302.313 356.367 304.442 360.901C306.57 365.436 307.063 370.564 305.837 375.418Z" fill="#262626"/>
<path d="M280.73 508H232V486H280.73C283.719 486.004 286.585 487.164 288.699 489.226C290.812 491.288 291.999 494.083 292 496.998C292 499.916 290.811 502.714 288.695 504.778C286.579 506.841 283.708 508 280.716 508H280.73Z" fill="#F47AFF"/>
<path d="M206.683 308.5H206.662L167.045 337.757L91.613 393.44L102.009 494.663L100.707 494.795L58.5977 499.084L57.2467 485.942L46.9375 385.551C46.5527 381.798 47.1551 378.01 48.6854 374.559C50.2157 371.108 52.6212 368.114 55.6652 365.87L133.377 308.5H206.683Z" fill="#434445"/>
<path d="M51.6578 486H102V509H51.6578C50.126 509 48.6092 508.702 47.1941 508.124C45.779 507.546 44.4934 506.698 43.4107 505.63C42.328 504.561 41.4695 503.293 40.8843 501.897C40.2991 500.501 39.9986 499.005 40 497.495C40 494.446 41.2282 491.522 43.4145 489.367C45.6008 487.211 48.566 486 51.6578 486Z" fill="#F47AFF"/>
<g clip-path="url(#clip0_494_412)">
<path d="M167.426 205.294C181.75 205.294 193.362 193.682 193.362 179.358C193.362 165.034 181.75 153.422 167.426 153.422C153.102 153.422 141.49 165.034 141.49 179.358C141.49 193.682 153.102 205.294 167.426 205.294Z" fill="#EDBE9A"/>
<path d="M145.238 192.925C147.139 177.713 146.326 173.364 146.326 173.364C146.326 173.364 186.256 172.132 198.765 158.055C203.306 152.937 200.208 144.816 193.444 143.863C176.952 141.554 141.938 139.774 135.746 164.945C130.7 185.386 145.238 192.925 145.238 192.925Z" fill="#5AA9D4"/>
</g>
<g clip-path="url(#clip1_494_412)">
<path d="M259.448 0L80 0L80 125.084L259.448 125.084V0Z" fill="#434445"/>
<path d="M100.624 25.2L103.684 17.7H106.564L100.904 30.68C100.278 32.1333 99.1709 32.86 97.5842 32.86H95.1042V30.52H97.0042C97.7509 30.52 98.2642 30.1867 98.5442 29.52L99.0642 28.28C99.1575 28.0933 99.1575 27.9067 99.0642 27.72L94.7642 17.7L97.6242 17.7L100.624 25.2ZM120.761 21.4V17.7H123.661V28H120.761V23.74L116.261 23.74V28L113.361 28V17.7H116.261V21.4H120.761ZM133.977 20.18V17.7H136.877V28H133.977V25.36H133.857C133.59 26.2667 133.11 26.9867 132.417 27.52C131.723 28.04 130.91 28.3 129.977 28.3C128.697 28.3 127.65 27.8133 126.837 26.84C126.037 25.8667 125.637 24.5333 125.637 22.84C125.637 21.1467 126.05 19.82 126.877 18.86C127.703 17.8867 128.783 17.4 130.117 17.4C130.97 17.4 131.737 17.6533 132.417 18.16C133.097 18.6667 133.577 19.34 133.857 20.18H133.977ZM133.837 22.98V22.66C133.823 21.7 133.57 20.9333 133.077 20.36C132.597 19.7733 131.977 19.48 131.217 19.48C130.443 19.48 129.81 19.7667 129.317 20.34C128.823 20.9133 128.563 21.68 128.537 22.64V23.02C128.563 23.9667 128.823 24.7333 129.317 25.32C129.823 25.9067 130.457 26.2 131.217 26.2C131.977 26.2 132.597 25.9 133.077 25.3C133.57 24.7 133.823 23.9267 133.837 22.98ZM140.339 26.8C139.366 25.8 138.879 24.48 138.879 22.84C138.879 21.2 139.359 19.8867 140.319 18.9C141.292 17.9 142.566 17.4 144.139 17.4C145.526 17.4 146.666 17.7933 147.559 18.58C148.452 19.3533 148.959 20.3667 149.079 21.62H146.179C146.086 21.0467 145.852 20.5933 145.479 20.26C145.106 19.9133 144.646 19.74 144.099 19.74C143.419 19.74 142.866 20.0133 142.439 20.56C142.026 21.1067 141.806 21.82 141.779 22.7V23C141.806 23.88 142.026 24.5933 142.439 25.14C142.866 25.6867 143.419 25.96 144.099 25.96C144.646 25.96 145.106 25.7933 145.479 25.46C145.852 25.1133 146.086 24.6467 146.179 24.06H149.079C148.959 25.3133 148.452 26.3333 147.559 27.12C146.679 27.9067 145.539 28.3 144.139 28.3C142.579 28.3 141.312 27.8 140.339 26.8ZM163.85 22.5V22.58C164.49 22.7 165.01 23 165.41 23.48C165.823 23.96 166.03 24.5267 166.03 25.18C166.03 26.02 165.723 26.7 165.11 27.22C164.51 27.74 163.69 28 162.65 28L156.33 28V17.7H162.73C163.556 17.7 164.23 17.94 164.75 18.42C165.27 18.9 165.53 19.4933 165.53 20.2C165.53 20.76 165.376 21.2467 165.07 21.66C164.763 22.0733 164.356 22.3533 163.85 22.5ZM162.61 20.56C162.61 19.8667 162.123 19.52 161.15 19.52H159.23V21.7H161.17C161.623 21.7 161.976 21.6 162.23 21.4C162.483 21.2 162.61 20.92 162.61 20.56ZM159.23 26.18L161.37 26.18C162.53 26.18 163.11 25.74 163.11 24.86C163.11 23.9533 162.55 23.5 161.43 23.5H159.23V26.18ZM178.449 17.7V28H175.549V21.16L171.209 28H168.009V17.7H170.909V24.54L175.249 17.7H178.449ZM191.898 17.7C193.298 17.7 194.424 18.1933 195.278 19.18C196.131 20.1667 196.558 21.4667 196.558 23.08C196.558 24.64 196.058 25.9 195.058 26.86C194.098 27.82 192.884 28.3 191.418 28.3C189.871 28.3 188.604 27.86 187.618 26.98C186.591 26.06 185.951 24.5733 185.698 22.52C185.391 19.92 185.738 17.7733 186.738 16.08C187.671 14.4933 189.191 13.48 191.298 13.04C191.738 12.9467 192.578 12.84 193.818 12.72C195.058 12.5867 195.938 12.4067 196.458 12.18V14.66C195.924 14.8867 195.058 15.0533 193.858 15.16C192.671 15.2667 191.918 15.3533 191.598 15.42C190.091 15.7 189.018 16.4067 188.378 17.54C187.818 18.5 187.544 19.7133 187.558 21.18L187.698 21.22C187.898 20.0867 188.364 19.22 189.098 18.62C189.831 18.0067 190.764 17.7 191.898 17.7ZM191.318 25.96C192.051 25.96 192.624 25.7133 193.038 25.22C193.451 24.7267 193.658 24.0267 193.658 23.12C193.658 22.1867 193.438 21.44 192.998 20.88C192.571 20.32 191.984 20.04 191.238 20.04C190.504 20.04 189.911 20.32 189.458 20.88C189.004 21.4267 188.778 22.14 188.778 23.02C188.778 23.9267 189.004 24.6467 189.458 25.18C189.924 25.7 190.544 25.96 191.318 25.96ZM203.515 25.2L206.575 17.7H209.455L203.795 30.68C203.168 32.1333 202.061 32.86 200.475 32.86H197.995V30.52H199.895C200.641 30.52 201.155 30.1867 201.435 29.52L201.955 28.28C202.048 28.0933 202.048 27.9067 201.955 27.72L197.655 17.7L200.515 17.7L203.515 25.2ZM221.108 17.7V25.72H222.648V30.48H220.168V28H212.068V30.48H209.588V25.66H209.848C210.942 25.66 211.488 25.2067 211.488 24.3V17.7H221.108ZM212.828 25.56V25.66H218.208V20.04H214.388V23.14C214.388 23.8333 214.268 24.3667 214.028 24.74C213.802 25.1 213.402 25.3733 212.828 25.56ZM233.273 22.26C233.926 22.8333 234.253 23.64 234.253 24.68C234.253 25.72 233.926 26.5333 233.273 27.12C232.619 27.7067 231.733 28 230.613 28L224.533 28V17.7H227.433V21.4H230.533C231.706 21.4 232.619 21.6867 233.273 22.26ZM227.433 23.6V26.06L229.833 26.06C230.833 26.06 231.333 25.6533 231.333 24.84C231.333 24.4533 231.199 24.1533 230.933 23.94C230.679 23.7133 230.326 23.6 229.873 23.6H227.433ZM236.451 23.38V21.4H243.331V23.38H236.451ZM110.144 42.6L115.604 48H111.884L107.384 43.54V48H104.484V37.7H107.384V41.6L111.524 37.7L115.324 37.7L110.144 42.6ZM121.158 48.3C119.598 48.3 118.345 47.8 117.398 46.8C116.452 45.8 115.978 44.48 115.978 42.84C115.978 41.1867 116.452 39.8667 117.398 38.88C118.345 37.8933 119.598 37.4 121.158 37.4C122.718 37.4 123.972 37.8933 124.918 38.88C125.865 39.8667 126.338 41.1867 126.338 42.84C126.338 44.4933 125.858 45.82 124.898 46.82C123.952 47.8067 122.705 48.3 121.158 48.3ZM119.518 45.16C119.932 45.6933 120.478 45.96 121.158 45.96C121.838 45.96 122.385 45.7 122.798 45.18C123.212 44.6467 123.425 43.92 123.438 43V42.68C123.412 41.7733 123.192 41.06 122.778 40.54C122.378 40.0067 121.838 39.74 121.158 39.74C120.478 39.74 119.932 40.0067 119.518 40.54C119.105 41.06 118.892 41.7733 118.878 42.68V42.98C118.892 43.9 119.105 44.6267 119.518 45.16ZM139.831 37.7V48H136.931V40.04H132.691V44.28C132.691 45.4933 132.371 46.42 131.731 47.06C131.091 47.6867 130.171 48 128.971 48H127.391V45.66H128.431C128.858 45.66 129.191 45.5467 129.431 45.32C129.671 45.08 129.791 44.74 129.791 44.3V37.7L139.831 37.7ZM152.658 37.7V48H149.758V41.16L145.418 48H142.218V37.7H145.118V44.54L149.458 37.7H152.658ZM171.407 37.7V48H168.507V41.1L166.427 44.5H165.167L163.107 41.14V48H160.207V37.7H163.387L165.807 41.76L168.187 37.7H171.407ZM178.561 48.3C177.001 48.3 175.747 47.8 174.801 46.8C173.854 45.8 173.381 44.48 173.381 42.84C173.381 41.1867 173.854 39.8667 174.801 38.88C175.747 37.8933 177.001 37.4 178.561 37.4C180.121 37.4 181.374 37.8933 182.321 38.88C183.267 39.8667 183.741 41.1867 183.741 42.84C183.741 44.4933 183.261 45.82 182.301 46.82C181.354 47.8067 180.107 48.3 178.561 48.3ZM176.921 45.16C177.334 45.6933 177.881 45.96 178.561 45.96C179.241 45.96 179.787 45.7 180.201 45.18C180.614 44.6467 180.827 43.92 180.841 43V42.68C180.814 41.7733 180.594 41.06 180.181 40.54C179.781 40.0067 179.241 39.74 178.561 39.74C177.881 39.74 177.334 40.0067 176.921 40.54C176.507 41.06 176.294 41.7733 176.281 42.68V42.98C176.294 43.9 176.507 44.6267 176.921 45.16ZM197.768 42.6L202.968 48H199.308L195.028 43.54V48L192.128 48V43.54L187.848 48H184.188L189.388 42.6L184.468 37.7H188.208L192.128 41.6V37.7H195.028V41.6L198.948 37.7H202.688L197.768 42.6ZM213.542 42.76V43.12H206.242C206.255 43.9733 206.475 44.66 206.902 45.18C207.342 45.7 207.895 45.96 208.562 45.96C209.082 45.96 209.522 45.8133 209.882 45.52C210.255 45.2133 210.488 44.82 210.582 44.34H213.482C213.322 45.5 212.802 46.4533 211.922 47.2C211.055 47.9333 209.942 48.3 208.582 48.3C207.022 48.3 205.755 47.8 204.782 46.8C203.822 45.8 203.342 44.48 203.342 42.84C203.342 41.2 203.822 39.8867 204.782 38.9C205.755 37.9 207.022 37.4 208.582 37.4C210.102 37.4 211.302 37.8867 212.182 38.86C213.062 39.82 213.515 41.12 213.542 42.76ZM208.562 39.74C207.975 39.74 207.475 39.9467 207.062 40.36C206.648 40.7733 206.395 41.3267 206.302 42.02H210.582C210.475 41.3533 210.262 40.8067 209.942 40.38C209.622 39.9533 209.162 39.74 208.562 39.74ZM224.08 37.7V40.04H220.74V48H217.84V40.04H214.52V37.7H224.08ZM235.3 42.76V43.12H228C228.013 43.9733 228.233 44.66 228.66 45.18C229.1 45.7 229.653 45.96 230.32 45.96C230.84 45.96 231.28 45.8133 231.64 45.52C232.013 45.2133 232.246 44.82 232.34 44.34H235.24C235.08 45.5 234.56 46.4533 233.68 47.2C232.813 47.9333 231.7 48.3 230.34 48.3C228.78 48.3 227.513 47.8 226.54 46.8C225.58 45.8 225.1 44.48 225.1 42.84C225.1 41.2 225.58 39.8867 226.54 38.9C227.513 37.9 228.78 37.4 230.34 37.4C231.86 37.4 233.06 37.8867 233.94 38.86C234.82 39.82 235.273 41.12 235.3 42.76ZM230.32 39.74C229.733 39.74 229.233 39.9467 228.82 40.36C228.406 40.7733 228.153 41.3267 228.06 42.02H232.34C232.233 41.3533 232.02 40.8067 231.7 40.38C231.38 39.9533 230.92 39.74 230.32 39.74ZM149.992 62.5V62.58C150.632 62.7 151.152 63 151.552 63.48C151.966 63.96 152.172 64.5267 152.172 65.18C152.172 66.02 151.866 66.7 151.252 67.22C150.652 67.74 149.832 68 148.792 68L142.472 68V57.7L148.872 57.7C149.699 57.7 150.372 57.94 150.892 58.42C151.412 58.9 151.672 59.4933 151.672 60.2C151.672 60.76 151.519 61.2467 151.212 61.66C150.906 62.0733 150.499 62.3533 149.992 62.5ZM148.752 60.56C148.752 59.8667 148.266 59.52 147.292 59.52H145.372V61.7H147.312C147.766 61.7 148.119 61.6 148.372 61.4C148.626 61.2 148.752 60.92 148.752 60.56ZM145.372 66.18H147.512C148.672 66.18 149.252 65.74 149.252 64.86C149.252 63.9533 148.692 63.5 147.572 63.5H145.372V66.18ZM157.751 63.56V61.88H158.331C158.731 61.88 159.051 61.76 159.291 61.52C159.531 61.28 159.651 60.96 159.651 60.56C159.651 60.16 159.524 59.8467 159.271 59.62C159.031 59.38 158.697 59.26 158.271 59.26C157.857 59.26 157.531 59.3733 157.291 59.6C157.051 59.8267 156.931 60.1267 156.931 60.5V60.58H154.151V60.4C154.151 59.4667 154.511 58.7333 155.231 58.2C155.964 57.6667 156.977 57.4 158.271 57.4C159.537 57.4 160.544 57.66 161.291 58.18C162.037 58.7 162.411 59.4067 162.411 60.3C162.411 60.8467 162.257 61.3333 161.951 61.76C161.644 62.1733 161.224 62.46 160.691 62.62V62.7C161.317 62.7667 161.824 63.02 162.211 63.46C162.597 63.8867 162.791 64.4267 162.791 65.08C162.791 66.04 162.391 66.82 161.591 67.42C160.804 68.0067 159.764 68.3 158.471 68.3C157.111 68.3 156.004 68 155.151 67.4C154.297 66.8 153.871 66.0133 153.871 65.04V64.82H156.651V64.94C156.651 65.4067 156.804 65.7733 157.111 66.04C157.431 66.3067 157.864 66.44 158.411 66.44C159.477 66.44 160.011 65.98 160.011 65.06C160.011 64.5933 159.864 64.2267 159.571 63.96C159.277 63.6933 158.864 63.56 158.331 63.56H157.751ZM173.93 57.7V68H171.03V63.94H169.27C168.644 63.94 168.23 64.2667 168.03 64.92L167.09 68H164.09L165.13 64.68C165.264 64.2667 165.43 63.9667 165.63 63.78C165.83 63.5933 166.117 63.4667 166.49 63.4V63.32C165.864 63.1333 165.384 62.8133 165.05 62.36C164.717 61.8933 164.55 61.3333 164.55 60.68C164.55 59.8133 164.83 59.1 165.39 58.54C165.964 57.98 166.697 57.7 167.59 57.7H173.93ZM168.95 62.06H171.03V59.56H168.95C168.484 59.56 168.117 59.6733 167.85 59.9C167.584 60.1133 167.45 60.42 167.45 60.82C167.45 61.6467 167.95 62.06 168.95 62.06ZM184.939 57.7V60.04H181.599V68H178.699V60.04H175.379V57.7H184.939ZM196.994 57.7V68L194.094 68V61.16L189.754 68H186.554V57.7H189.454V64.54L193.794 57.7L196.994 57.7ZM118.166 80.18V77.7H121.066V88H118.166V85.36H118.046C117.779 86.2667 117.299 86.9867 116.606 87.52C115.913 88.04 115.099 88.3 114.166 88.3C112.886 88.3 111.839 87.8133 111.026 86.84C110.226 85.8667 109.826 84.5333 109.826 82.84C109.826 81.1467 110.239 79.82 111.066 78.86C111.893 77.8867 112.973 77.4 114.306 77.4C115.159 77.4 115.926 77.6533 116.606 78.16C117.286 78.6667 117.766 79.34 118.046 80.18H118.166ZM118.026 82.98V82.66C118.013 81.7 117.759 80.9333 117.266 80.36C116.786 79.7733 116.166 79.48 115.406 79.48C114.633 79.48 113.999 79.7667 113.506 80.34C113.013 80.9133 112.753 81.68 112.726 82.64V83.02C112.753 83.9667 113.013 84.7333 113.506 85.32C114.013 85.9067 114.646 86.2 115.406 86.2C116.166 86.2 116.786 85.9 117.266 85.3C117.759 84.7 118.013 83.9267 118.026 82.98ZM129.128 82.6L134.588 88H130.868L126.368 83.54V88L123.468 88V77.7L126.368 77.7V81.6L130.508 77.7H134.308L129.128 82.6ZM143.303 80.18V77.7H146.203V88H143.303V85.36H143.183C142.916 86.2667 142.436 86.9867 141.743 87.52C141.05 88.04 140.236 88.3 139.303 88.3C138.023 88.3 136.976 87.8133 136.163 86.84C135.363 85.8667 134.963 84.5333 134.963 82.84C134.963 81.1467 135.376 79.82 136.203 78.86C137.03 77.8867 138.11 77.4 139.443 77.4C140.296 77.4 141.063 77.6533 141.743 78.16C142.423 78.6667 142.903 79.34 143.183 80.18H143.303ZM143.163 82.98V82.66C143.15 81.7 142.896 80.9333 142.403 80.36C141.923 79.7733 141.303 79.48 140.543 79.48C139.77 79.48 139.136 79.7667 138.643 80.34C138.15 80.9133 137.89 81.68 137.863 82.64V83.02C137.89 83.9667 138.15 84.7333 138.643 85.32C139.15 85.9067 139.783 86.2 140.543 86.2C141.303 86.2 141.923 85.9 142.403 85.3C142.896 84.7 143.15 83.9267 143.163 82.98ZM159.106 77.7V85.72H160.646V90.48H158.166V88H150.066V90.48H147.586V85.66H147.846C148.94 85.66 149.486 85.2067 149.486 84.3V77.7H159.106ZM150.826 85.56V85.66H156.206V80.04H152.386V83.14C152.386 83.8333 152.266 84.3667 152.026 84.74C151.8 85.1 151.4 85.3733 150.826 85.56ZM172.331 82.76V83.12H165.031C165.044 83.9733 165.264 84.66 165.691 85.18C166.131 85.7 166.684 85.96 167.351 85.96C167.871 85.96 168.311 85.8133 168.671 85.52C169.044 85.2133 169.277 84.82 169.371 84.34H172.271C172.111 85.5 171.591 86.4533 170.711 87.2C169.844 87.9333 168.731 88.3 167.371 88.3C165.811 88.3 164.544 87.8 163.571 86.8C162.611 85.8 162.131 84.48 162.131 82.84C162.131 81.2 162.611 79.8867 163.571 78.9C164.544 77.9 165.811 77.4 167.371 77.4C168.891 77.4 170.091 77.8867 170.971 78.86C171.851 79.82 172.304 81.12 172.331 82.76ZM167.351 79.74C166.764 79.74 166.264 79.9467 165.851 80.36C165.437 80.7733 165.184 81.3267 165.091 82.02H169.371C169.264 81.3533 169.051 80.8067 168.731 80.38C168.411 79.9533 167.951 79.74 167.351 79.74ZM185.528 77.7V88H182.628V81.1L180.548 84.5H179.288L177.228 81.14V88H174.328V77.7H177.508L179.928 81.76L182.308 77.7H185.528ZM187.702 75.98V73.4H190.602V75.98H187.702ZM187.702 88V77.7H190.602V88H187.702ZM200.98 80.72V77.7H203.9V88H200.98V82.18H200.88C199.96 84.06 198.607 85 196.82 85C195.673 85 194.747 84.6333 194.04 83.9C193.333 83.1533 192.98 82.18 192.98 80.98V77.7H195.88V79.98C195.88 80.8733 196.067 81.5667 196.44 82.06C196.813 82.54 197.36 82.78 198.08 82.78C198.693 82.78 199.253 82.6 199.76 82.24C200.267 81.88 200.673 81.3733 200.98 80.72ZM213.681 81.4V77.7H216.581V88H213.681V83.74H209.181V88H206.281V77.7H209.181V81.4H213.681ZM224.052 85.2L227.112 77.7H229.992L224.332 90.68C223.705 92.1333 222.599 92.86 221.012 92.86H218.532V90.52H220.432C221.179 90.52 221.692 90.1867 221.972 89.52L222.492 88.28C222.585 88.0933 222.585 87.9067 222.492 87.72L218.192 77.7H221.052L224.052 85.2ZM126.975 102.5V102.58C127.615 102.7 128.135 103 128.535 103.48C128.948 103.96 129.155 104.527 129.155 105.18C129.155 106.02 128.848 106.7 128.235 107.22C127.635 107.74 126.815 108 125.775 108L119.455 108V97.7L125.855 97.7C126.681 97.7 127.355 97.94 127.875 98.42C128.395 98.9 128.655 99.4933 128.655 100.2C128.655 100.76 128.501 101.247 128.195 101.66C127.888 102.073 127.481 102.353 126.975 102.5ZM125.735 100.56C125.735 99.8667 125.248 99.52 124.275 99.52H122.355V101.7H124.295C124.748 101.7 125.101 101.6 125.355 101.4C125.608 101.2 125.735 100.92 125.735 100.56ZM122.355 106.18H124.495C125.655 106.18 126.235 105.74 126.235 104.86C126.235 103.953 125.675 103.5 124.555 103.5H122.355V106.18ZM130.993 95.98V93.4H133.893V95.98H130.993ZM130.993 108V97.7H133.893V108H130.993ZM146.831 97.7V105.72H148.371V110.48H145.891V108H137.791V110.48H135.311V105.66H135.571C136.664 105.66 137.211 105.207 137.211 104.3V97.7H146.831ZM138.551 105.56V105.66H143.931V100.04H140.111V103.14C140.111 103.833 139.991 104.367 139.751 104.74C139.524 105.1 139.124 105.373 138.551 105.56ZM160.555 97.7V108H157.655V100.04H153.155V108H150.255V97.7H160.555ZM168.027 105.2L171.087 97.7H173.967L168.307 110.68C167.68 112.133 166.573 112.86 164.987 112.86H162.507V110.52H164.407C165.153 110.52 165.667 110.187 165.947 109.52L166.467 108.28C166.56 108.093 166.56 107.907 166.467 107.72L162.167 97.7H165.027L168.027 105.2ZM176.257 106.8C175.284 105.8 174.797 104.48 174.797 102.84C174.797 101.2 175.277 99.8867 176.237 98.9C177.21 97.9 178.484 97.4 180.057 97.4C181.444 97.4 182.584 97.7933 183.477 98.58C184.37 99.3533 184.877 100.367 184.997 101.62H182.097C182.004 101.047 181.77 100.593 181.397 100.26C181.024 99.9133 180.564 99.74 180.017 99.74C179.337 99.74 178.784 100.013 178.357 100.56C177.944 101.107 177.724 101.82 177.697 102.7V103C177.724 103.88 177.944 104.593 178.357 105.14C178.784 105.687 179.337 105.96 180.017 105.96C180.564 105.96 181.024 105.793 181.397 105.46C181.77 105.113 182.004 104.647 182.097 104.06H184.997C184.877 105.313 184.37 106.333 183.477 107.12C182.597 107.907 181.457 108.3 180.057 108.3C178.497 108.3 177.23 107.8 176.257 106.8ZM195.555 97.7V100.04H192.215V108H189.315V100.04H185.995V97.7H195.555ZM202.829 102.6L208.29 108H204.57L200.069 103.54V108H197.169V97.7H200.069V101.6L204.209 97.7H208.01L202.829 102.6ZM214.823 105.2L217.883 97.7H220.763L215.103 110.68C214.477 112.133 213.37 112.86 211.783 112.86H209.303V110.52H211.203C211.95 110.52 212.463 110.187 212.743 109.52L213.263 108.28C213.357 108.093 213.357 107.907 213.263 107.72L208.963 97.7H211.823L214.823 105.2Z" fill="white"/>
</g>
<path d="M278.162 112.265C275.013 112.267 271.931 111.357 269.28 109.644C266.629 107.931 264.521 105.486 263.207 102.6L252.663 79.5365C250.839 75.5371 250.665 70.9705 252.178 66.8415C253.692 62.7124 256.769 59.3591 260.734 57.5192C264.698 55.6793 269.225 55.5035 273.318 57.0306C277.411 58.5576 280.735 61.6623 282.559 65.6617L293.079 88.7254C294.23 91.2538 294.733 94.0335 294.542 96.8092C294.351 99.585 293.471 102.268 291.985 104.611C290.498 106.955 288.451 108.884 286.032 110.221C283.614 111.558 280.901 112.261 278.143 112.265H278.162Z" fill="#EDBE9A"/>
<path d="M56.6622 117.076C53.9041 117.072 51.1912 116.369 48.7726 115.032C46.354 113.695 44.3072 111.766 42.8203 109.422C41.3334 107.079 40.4539 104.396 40.2628 101.62C40.0716 98.8445 40.5747 96.0648 41.7261 93.5364L52.2462 70.4727C53.1353 68.471 54.409 66.6669 55.9935 65.1647C57.5781 63.6626 59.442 62.4922 61.4777 61.7212C63.5133 60.9502 65.6803 60.594 67.8532 60.673C70.0262 60.7521 72.162 61.2649 74.1373 62.1817C76.1127 63.0986 77.8882 64.4014 79.3614 66.0148C80.8346 67.6282 81.9761 69.5202 82.72 71.5813C83.4639 73.6425 83.7955 75.832 83.6955 78.0232C83.5955 80.2145 83.066 82.364 82.1375 84.3475L71.6364 107.411C70.3201 110.3 68.2092 112.746 65.5546 114.46C62.9001 116.173 59.8136 117.081 56.6622 117.076Z" fill="#EDBE9A"/>
<path d="M333.59 187.6L318.897 151.879L319.026 151.826L309.05 127.939C307.366 123.878 304.151 120.658 300.114 118.988C296.076 117.317 291.546 117.333 287.521 119.032C283.495 120.731 280.303 123.974 278.647 128.047C276.991 132.12 277.007 136.69 278.691 140.751L296.369 183.717L194.287 217.125C187.471 213.616 179.926 211.792 172.274 211.804H166.47C156.25 211.789 146.289 215.045 138.019 221.103L38.4737 188.528L56.1519 145.557C56.9858 143.546 57.4188 141.389 57.4264 139.209C57.4339 137.03 57.0158 134.87 56.1959 132.853C55.376 130.836 54.1704 129.002 52.6479 127.455C51.1253 125.908 49.3157 124.679 47.3223 123.838C45.329 122.997 43.1909 122.56 41.0301 122.552C38.8694 122.545 36.7283 122.966 34.7291 123.794C32.73 124.621 30.9119 125.837 29.3787 127.373C27.8455 128.909 26.6271 130.735 25.7933 132.746L15.8168 156.632L15.9456 156.685L1.24793 192.411C0.381384 194.526 -0.0423501 196.799 0.00333817 199.087C0.0490265 201.375 0.563147 203.629 1.51342 205.707C2.46369 207.785 3.82959 209.643 5.52535 211.163C7.22111 212.683 9.21011 213.833 11.3675 214.541L119.168 249.815C118.361 253.395 117.954 257.055 117.956 260.726V315.537H220.788V260.745C220.793 255.132 219.838 249.559 217.964 244.273L323.471 209.749C325.629 209.043 327.619 207.893 329.315 206.373C331.012 204.853 332.378 202.996 333.329 200.917C334.279 198.839 334.793 196.584 334.838 194.296C334.883 192.007 334.458 189.734 333.59 187.619V187.6Z" fill="#F47AFF"/>
<defs>
<clipPath id="clip0_494_412">
<rect width="66.2226" height="62.6673" fill="white" transform="translate(134.669 142.627)"/>
</clipPath>
<clipPath id="clip1_494_412">
<rect width="179.448" height="125.084" fill="white" transform="translate(80)"/>
</clipPath>
</defs>
</svg>
