<svg width="428" height="473" viewBox="0 0 428 473" fill="none" xmlns="http://www.w3.org/2000/svg">
<path d="M285.684 205.283C285.684 205.283 405.322 279.513 427.215 309.332C433.975 318.541 395.844 343.355 360.883 364.216C302.642 398.971 232.991 433.245 232.991 433.245L171.245 382.703L328.054 309.066L178.114 206.521L285.684 205.283Z" fill="#262626"/>
<path d="M210.912 458.985L148.699 401.619L176.515 375.971L238.727 433.336C240.619 435.081 242.133 437.14 243.182 439.396C244.23 441.653 244.794 444.062 244.84 446.486C244.886 448.911 244.414 451.303 243.45 453.527C242.487 455.751 241.051 457.762 239.224 459.447C235.535 462.847 230.479 464.708 225.17 464.621C219.861 464.534 214.732 462.507 210.912 458.985Z" fill="#DC6CE6"/>
<path d="M152.345 205.283C152.345 205.283 34 283.86 22.5 303.224C19.0859 308.071 18.6238 313.331 30.0001 325.815C40.2403 337.053 64.3057 354.334 80.1964 364.216C136.077 398.971 202.903 433.245 202.903 433.245L262.147 382.703L111.693 309.065L255.555 206.521L152.345 205.283Z" fill="#434445"/>
<path d="M195.545 438.796L238.992 369.406L273.059 387.542L229.611 456.931C226.944 461.192 222.591 464.323 217.51 465.637C212.43 466.95 207.038 466.337 202.52 463.933C198.002 461.528 194.728 457.528 193.42 452.814C192.112 448.1 192.877 443.057 195.545 438.796Z" fill="#F47AFF"/>
<g clip-path="url(#clip0_506_446)">
<path d="M69.5786 241.742C64.5748 241.743 59.7194 240.046 55.8089 236.931C51.8984 233.816 49.1651 229.466 48.0574 224.597C46.9498 219.727 47.5336 214.627 49.713 210.132C51.8924 205.637 55.538 202.014 60.0517 199.859L88.8754 186.115C91.4945 184.822 94.3449 184.062 97.261 183.877C100.177 183.693 103.101 184.088 105.863 185.041C108.624 185.993 111.169 187.484 113.348 189.426C115.528 191.368 117.299 193.723 118.559 196.354C119.819 198.985 120.543 201.84 120.688 204.752C120.833 207.664 120.397 210.577 119.405 213.319C118.413 216.062 116.885 218.581 114.91 220.73C112.934 222.878 110.551 224.614 107.897 225.835L79.0736 239.617C76.1069 241.023 72.8627 241.749 69.5786 241.742Z" fill="#EDBE9A"/>
<path d="M410.435 169.039C410.064 165.432 408.806 161.973 406.774 158.967C404.742 155.962 401.998 153.504 398.785 151.811L256.035 76.7161C254.526 75.8356 252.972 75.0252 251.386 74.2659C244.656 71.0697 237.422 69.062 230.005 68.3318C227.83 68.1084 225.644 67.9977 223.458 68H215.676C205.937 67.9891 196.321 70.1701 187.543 74.3808L16.1863 113.303C12.461 114.33 9.07147 116.315 6.35703 119.061C3.6426 121.806 1.69854 125.215 0.71952 128.946C-0.259496 132.677 -0.239104 136.599 0.778653 140.319C1.79641 144.04 3.77581 147.428 6.51865 150.145L55.285 198.441L86.3594 167.175L64.6201 145.621L150.938 126.92C150.759 128.885 150.657 130.876 150.657 132.886V205.581H288.497V143.573L348.983 175.407L321.528 198.128L349.661 232.016L402.59 188.289C405.384 185.973 407.562 183.004 408.931 179.646C410.3 176.287 410.816 172.644 410.435 169.039Z" fill="#F47AFF"/>
</g>
<path d="M144.306 227.275C145.601 225.846 147.504 225.127 149.419 225.342L305.023 242.773C314.781 243.866 319.167 255.576 312.53 262.811L271.622 307.401C269.538 309.672 266.523 310.855 263.45 310.608L98.2031 297.304C91.5855 296.772 88.4591 288.875 92.9182 283.957L144.306 227.275Z" fill="#CACFD6"/>
<path d="M85.0053 193.504C84.8459 186.497 90.7 180.867 97.6972 181.298L257.09 191.109C263.333 191.494 268.252 196.605 268.394 202.857L270.673 303.057C270.767 307.183 267.289 310.481 263.172 310.17L95.5233 297.504C90.8935 297.154 87.2762 293.343 87.1707 288.702L85.0053 193.504Z" fill="#D6E5E3"/>
<path d="M162 231C162 226.582 165.582 223 170 223H178C182.418 223 186 226.582 186 231V240C186 243.866 182.866 247 179 247H162V231Z" fill="white"/>
<path d="M187 265C187 269.418 183.418 273 179 273H171C166.582 273 163 269.418 163 265V256C163 252.134 166.134 249 170 249H187V265Z" fill="white"/>
<path d="M150 243C150 238.582 153.582 235 158 235H169V247C169 247 165.127 247 163.348 249C161.568 251 160.985 252.356 161 254.5C161.015 256.644 161 259 161 259H158C153.582 259 150 255.418 150 251V243Z" fill="white"/>
<path d="M198.471 253C198.471 257.418 194.89 261 190.471 261H179.471V249C179.471 249 183.72 249 185.5 247C187.28 245 188.015 243.644 188 241.5C187.985 239.356 188 237 188 237H190.471C194.89 237 198.471 240.582 198.471 245V253Z" fill="white"/>
<path d="M311.443 291.905C305.592 291.905 299.981 289.586 295.845 285.458C291.708 281.329 289.384 275.73 289.384 269.892V237.988C289.384 232.15 291.708 226.551 295.845 222.422C299.981 218.294 305.592 215.975 311.443 215.975C317.293 215.975 322.904 218.294 327.041 222.422C331.178 226.551 333.502 232.15 333.502 237.988V269.892C333.502 275.73 331.178 281.329 327.041 285.458C322.904 289.586 317.293 291.905 311.443 291.905Z" fill="#EDBE9A"/>
<path d="M248.435 36.5858C248.426 45.3347 245.084 53.7515 239.09 60.1242C233.096 66.4968 224.899 70.3466 216.167 70.8905C207.435 71.4344 198.824 68.6314 192.085 63.0519C185.346 57.4723 180.986 49.5352 179.891 40.8551C178.797 32.175 181.05 23.4039 186.192 16.3259C191.335 9.24796 198.98 4.39482 207.574 2.75373C216.168 1.11263 225.064 2.80683 232.452 7.4917C239.841 12.1766 245.168 19.5002 247.349 27.9729C248.073 30.7866 248.438 33.6805 248.435 36.5858V36.5858Z" fill="#EDBE9A"/>
<path d="M213.99 2.14046C208.635 2.14063 203.355 3.39447 198.572 5.8016L199.281 0C197.112 2.49542 195.222 5.22076 193.646 8.12734C187.442 7.0667 179.551 9.20716 179.551 9.20716L189.212 12.683C184.702 17.3559 181.606 23.2081 180.278 29.5648C178.951 35.9215 179.448 42.5239 181.71 48.6107C188.681 43.3203 191.933 28.6629 191.933 28.6629C191.933 28.6629 199.799 44.2468 195.358 46.0422C195.863 45.8569 213.888 39.116 209.683 25.8196C209.683 25.8196 224.59 23.9028 224.232 36.5858C224.232 36.5858 239.285 30.0814 234.423 19.788C234.423 19.788 244.467 22.133 243.4 30.19C244.937 29.9261 246.338 29.1436 247.368 27.9729C245.455 20.5765 241.138 14.0255 235.096 9.34956C229.054 4.6736 221.63 2.13773 213.99 2.14046V2.14046Z" fill="#5AA9D4"/>
<defs>
<clipPath id="clip0_506_446">
<rect width="410.566" height="220.709" fill="white" transform="translate(0 67)"/>
</clipPath>
</defs>
</svg>
