<svg width="647" height="375" viewBox="0 0 647 375" fill="none" xmlns="http://www.w3.org/2000/svg">
<path d="M589 186C589 186 147.635 394.689 182.827 269.895C218.019 145.1 7.49998 174 7.49998 174" stroke="#262626" stroke-width="50"/>
<path d="M588 189C588 189 421.462 264.615 304.5 296C216.84 319.522 161.794 315.124 181.5 268C227.5 158.001 9.99987 174.5 9.99987 174.5" stroke="#B3FBD8" stroke-width="10" stroke-linecap="round" stroke-dasharray="0.1 34"/>
<circle cx="597" cy="183" r="47" fill="white" stroke="#262626" stroke-width="6"/>
<path d="M582 204V198H576V174H582V168H588V162H612V168H594V174H588V180H612V186H618V198H612V204H582ZM588 198H606V186H588V198Z" fill="#262626"/>
</svg>
