<svg width="473" height="495" viewBox="0 0 473 495" fill="none" xmlns="http://www.w3.org/2000/svg">
<path d="M97.1219 415.496C97.1219 415.496 252.735 534.217 260.931 361.584C266.091 172.857 350.551 292.153 400.685 182.795C450.818 73.4373 263.304 24.9412 263.304 24.9412" stroke="#262626" stroke-width="50"/>
<path d="M100.739 418.409C100.739 418.409 130.164 442.064 168.202 450.678C203.361 458.64 247.09 453.84 253.191 403.541C261.599 334.218 262.168 291.739 279.573 269.247C317.573 220.141 370.21 253.3 401.563 180.456C447.277 74.2467 264.914 26.6153 264.914 26.6153" stroke="#B3FBD8" stroke-width="10" stroke-linecap="round" stroke-dasharray="0.1 34"/>
<circle cx="103" cy="423" r="47" fill="white" stroke="#262626" stroke-width="6"/>
<path d="M88 444V438H82V432H94V438H112V426H94V420H100V414H106V408H88V402H124V408H118V414H112V420H118V426H124V438H118V444H88Z" fill="#262626"/>
</svg>
