<svg width="85" height="24" viewBox="0 0 85 24" fill="none" xmlns="http://www.w3.org/2000/svg">
<path d="M62.5528 22.7764L62.191 23.5L63 23.5L83 23.5L83.809 23.5L83.4472 22.7764L73.4472 2.77639L73 1.88197L72.5528 2.77639L62.5528 22.7764Z" fill="#B3FBD8" stroke="white"/>
<path d="M0 21.25V9H10.5V10.75H12.25V14.25H10.5V16H12.25V19.5H10.5V21.25H0ZM3.5 14.25H8.75V10.75H3.5V14.25ZM3.5 19.5H8.75V16H3.5V19.5ZM15.75 21.25V12.5H26.25V16H24.5V14.25H19.25V21.25H15.75ZM29.75 21.25V19.5H28V14.25H29.75V12.5H38.5V14.25H40.25V19.5H38.5V21.25H29.75ZM31.5 19.5H36.75V14.25H31.5V19.5ZM54.25 14.25V19.5H52.5V21.25H45.5V23H42V12.5H45.5V14.25H47.25V16H45.5V19.5H50.75V14.25H47.25V12.5H52.5V14.25H54.25ZM57.75 23V21.25H64.75V19.5H57.75V17.75H56V12.5H59.5V17.75H64.75V12.5H68.25V21.25H66.5V23H57.75Z" fill="#262626"/>
</svg>
